<?xml version="1.0" standalone="no"?>
<!DOCTYPE svg PUBLIC "-//W3C//DTD SVG 1.1//EN" "http://www.w3.org/Graphics/SVG/1.1/DTD/svg11.dtd" >
<!--
2013-9-30: Created.
-->
<svg>
<metadata>
Created by iconfont
</metadata>
<defs>

<font id="iconfont" horiz-adv-x="1024" >
  <font-face
    font-family="iconfont"
    font-weight="500"
    font-stretch="normal"
    units-per-em="1024"
    ascent="896"
    descent="-128"
  />
    <missing-glyph />
    
    <glyph glyph-name="weibiaoti--" unicode="&#59152;" d="M276.2 731.8m-40.9 0a40.9 40.9 0 1 1 81.8 0 40.9 40.9 0 1 1-81.8 0ZM724.7 746.3m-40.9 0a40.9 40.9 0 1 1 81.8 0 40.9 40.9 0 1 1-81.8 0ZM512 328.1c-22.6 0-41 18.3-41 41V808.8c0 22.6 18.3 41 41 41 22.6 0 41-18.3 41-41v-439.7c0-22.6-18.4-41-41-41zM739.8 785.7l-45.5-68.5C817.2 652 900.9 522.8 900.9 374.1c0-214.3-173.8-388.1-388.1-388.1S124.7 159.79999999999995 124.7 374.1c0 134.3 68.2 252.6 171.9 322.3l-40 71.8c-128.7-83.8-213.8-229-213.8-394.1 0-259.6 210.4-470 470-470s470 210.4 470 470c0 177.2-98.1 331.5-243 411.6z"  horiz-adv-x="1024" />

    
    <glyph glyph-name="kaiguan1" unicode="&#59151;" d="M515.674692 259.215995c43.485771 0 78.723645 33.797948 78.723645 75.463652L594.398337 820.49155C594.397057 862.202052 559.160463 896 515.674692 896s-78.723645-33.797948-78.723645-75.50845l0-485.810622C436.951046 293.013943 472.18764 259.215995 515.674692 259.215995zM836.09091 681.767139c-32.420738 27.756657-82.188428 25.064955-111.132864-6.064329-28.939317-31.096006-26.100422-78.814521 6.336955-106.571178 67.077522-57.56633 109.045291-140.413924 109.07345-233.376839-0.307184-172.715628-146.017477-312.470386-326.088888-312.748132-180.066292 0.279026-325.798343 140.032503-326.083768 312.748132 0.023039 93.400653 42.382468 176.550312 109.995003 234.1384 32.552572 27.631224 35.543778 75.366377 6.729895 106.54174-28.843322 31.20992-78.563654 34.098732-111.093186 6.44575l-0.023039 0.039678C94.011822 598.219421 30.716506 473.739401 30.744664 335.754793 30.790742 79.593841 247.21357-127.960322 514.280843-128c267.060873 0.039678 483.484981 207.595121 483.524659 463.754793C997.832381 473.142951 935.134794 597.137877 836.09091 681.767139z"  horiz-adv-x="1024" />

    
    <glyph glyph-name="kaiguan" unicode="&#59150;" d="M832 768c35.346 0 64-28.654 64-64v-640c0-35.346-28.654-64-64-64H192c-35.346 0-64 28.654-64 64V704c0 35.346 28.654 64 64 64h640z m0.496-34H192c-16.403 0-29.731-13.164-30-29.504V64c0-16.403 13.164-29.731 29.504-30H832c16.403 0 29.731 13.164 30 29.504V704c0 16.403-13.164 29.731-29.504 30zM808 704c13.255 0 24-10.745 24-24v-592c0-13.255-10.745-24-24-24H216c-13.255 0-24 10.745-24 24V680c0 13.255 10.745 24 24 24h592z m-312.938-24H216v-592.001h279.582A7.977 7.977 0 0 0 495 91V679c0 0.339 0.021 0.672 0.062 1zM808 680H528.938c0.041-0.328 0.062-0.661 0.062-1v-588a7.977 7.977 0 0 0-0.582-3.001H808V680zM367 135m-17 0a17 17 0 1 1 34 0 17 17 0 1 1-34 0ZM657 135m-17 0a17 17 0 1 1 34 0 17 17 0 1 1-34 0Z"  horiz-adv-x="1024" />

    
    <glyph glyph-name="yuan" unicode="&#59149;" d="M512 384m-393.75 0a393.75 393.75 0 1 1 787.5 0 393.75 393.75 0 1 1-787.5 0Z"  horiz-adv-x="1024" />

    
    <glyph glyph-name="icon03" unicode="&#59144;" d="M449.377 446.562c-8.572-5.122-15.429-11.395-20.573-18.806-5.143-7.424-7.715-16.252-7.715-26.482 0-9.211 1.849-16.768 5.572-22.645 3.709-5.889 9.992-11.261 18.859-16.119 8.853-4.87 20.573-9.475 35.145-13.817 2.831-0.846 5.812-1.716 8.936-2.61l0 113.632c-3.891-0.529-7.728-1.199-11.508-2.023-10.582-2.302-20.144-6.02-28.716-11.129zM588.671 255.044c-8.291 5.877-19.862 11.514-34.717 16.888-6.109 2.208-12.953 4.436-20.507 6.686l0-133.819c18.308 2.536 34.434 8.438 48.367 17.747 19.139 12.786 28.716 29.169 28.716 49.128 0 9.211-1.58 17.27-4.713 24.18-3.15 6.908-8.868 13.301-17.145 19.19zM637.608 630.112l108.788 186.695-469.745 0 111.331-185.85c-148.377-49.077-254.96-184.082-254.96-342.948 0-200.322 169.462-362.715 378.502-362.715 209.041 0 378.503 162.393 378.503 362.715 0 157.959-105.366 292.332-252.418 342.103zM661.104 164.083c-9.723-15.353-22.581-28.402-38.574-39.149-16.006-10.747-33.859-19.07-53.574-24.947-11.685-3.483-23.523-5.93-35.508-7.351l0-27.892c0-12.108-9.816-21.923-21.924-21.923s-21.923 9.816-21.923 21.923l0 27.035c-16.763 1.107-32.461 3.713-47.08 7.825-20.011 5.637-37.007 12.533-51.004 20.725-14.01 8.18-24.859 16.504-32.574 24.948-7.715 8.443-11.573 15.471-11.573 21.109 0 6.141 1.715 13.049 5.143 20.725 3.429 7.677 9.71 11.25 18.859 10.747 5.706 0 11.706-2.95 18.001-8.827 6.282-5.889 14.426-12.162 24.43-18.806 9.993-6.657 22.849-12.797 38.574-18.423 10.538-3.781 22.954-6.282 37.223-7.524l0 145.813c-21.082 5.123-39.5 10.458-55.224 16-17.439 6.141-31.865 13.301-43.289 21.494-11.439 8.179-19.862 18.039-25.288 29.552-5.437 11.514-8.143 25.715-8.143 42.602 0 17.391 3.992 33.007 12.001 46.824 7.996 13.817 18.994 25.583 33.003 35.31 13.997 9.715 30.284 17.139 48.86 22.26 12.138 3.341 24.836 5.587 38.08 6.747l0 22.745c0 12.108 9.816 21.923 21.923 21.923s21.924-9.816 21.924-21.923l0-22.614c13.685-0.985 26.53-2.884 38.508-5.726 18.282-4.353 33.994-9.859 47.146-16.503 13.139-6.657 23.427-13.697 30.859-21.109 7.42-7.424 11.144-14.464 11.144-21.109 0-8.192-2.009-15.867-6-23.028-4.005-7.172-10.581-10.746-19.716-10.746-4.005 0-8.009 1.403-12.001 4.221-4.004 2.807-9.723 7.028-17.144 12.665-13.153 9.211-26.291 16.624-39.43 22.261-8.73 3.733-19.859 6.334-33.366 7.817l0-125.395c0.833-0.212 1.662-0.422 2.506-0.635 19.421-5.122 37.716-10.627 54.859-16.504 17.144-5.889 31.999-13.313 44.575-22.261 12.563-8.959 22.421-19.706 29.573-32.239 7.14-12.546 10.716-28.282 10.716-47.208 0.001-18.937-4.862-36.077-14.572-51.428z"  horiz-adv-x="1024" />

    
    <glyph glyph-name="danju" unicode="&#59145;" d="M881.2186 722.1934 774.903808 722.1934c-11.5579 0-20.9111-9.3624-20.9111-20.9111 0-11.5476 9.3532-20.9121 20.9111-20.9121l106.314752 0 0-703.151104L143.43168-22.780904 143.43168 680.370176l108.030976 0c11.5589 0 20.9111 9.3645 20.9111 20.9121 0 11.5487-9.3532 20.9111-20.9111 20.9111L143.43168 722.193376c-23.0554 0-41.8222-18.7566-41.8222-41.8232l0-703.151104c0-23.0564 18.7668-41.8232 41.8222-41.8232l737.78688 0c23.0554 0 41.8232 18.7668 41.8232 41.8232L923.04176 680.370176C923.0418 703.4368 904.2739 722.1934 881.2186 722.1934zM346.3393 679.0636 678.310912 679.0636c11.5589 0 20.9121 9.3624 20.9121 20.9121 0 11.5476-9.3532 20.9101-20.9121 20.9101l-64.123904 0c0.3072 2.818 0.7363 5.5951 0.7363 8.4961 0 56.5678-46.0298 102.5966-102.5966 102.5966-56.5678 0-102.5976-46.0288-102.5976-102.5966 0-2.901 0.4291-5.6781 0.7352-8.4961l-64.123904 0c-11.5589 0-20.9111-9.3624-20.9111-20.9101C325.4272 688.426 334.7804 679.0636 346.3393 679.0636zM451.5512 729.3819c0 33.5114 27.262 60.7744 60.7744 60.7744 33.5114 0 60.7744-27.263 60.7744-60.7744 0-2.942-0.6738-5.6781-1.1233-8.4961L452.673536 720.8858C452.224 723.7038 451.5512 726.441 451.5512 729.3819zM302.1066 474.5226l420.436992 0c11.5589 0 20.9111 9.3635 20.9111 20.9111s-9.3522 20.9121-20.9111 20.9121L302.106624 516.3458c-11.5589 0-20.9111-9.3645-20.9111-20.9121S290.5487 474.5226 302.1066 474.5226zM302.1066 294.8137l420.436992 0c11.5589 0 20.9111 9.3532 20.9111 20.9111s-9.3522 20.9121-20.9111 20.9121L302.106624 336.6369c-11.5589 0-20.9111-9.3542-20.9111-20.9121S290.5487 294.8137 302.1066 294.8137zM302.1066 115.1048l420.436992 0c11.5589 0 20.9111 9.3522 20.9111 20.9121 0 11.5579-9.3522 20.9101-20.9111 20.9101L302.106624 156.927c-11.5589 0-20.9111-9.3522-20.9111-20.9101C281.1955 124.457 290.5487 115.1048 302.1066 115.1048z"  horiz-adv-x="1024" />

    
    <glyph glyph-name="chengbenguanli" unicode="&#59146;" d="M846.464 354.752a207.904 207.904 0 0 0-194.816 207.392 207.04 207.04 0 0 0 43.424 126.912c-72.256 20.096-74.24 0.288-135.936-30.176-48.352-10.144-44.928 56.032-106.016 25.504 31.008-66.24 56.512-84 62.176-107.328-7.072-0.8-12.544-5.152-12.544-10.496s5.472-9.664 12.544-10.432l-0.64-3.168c-4.736-18.688-49.152-48.608-86.976-76.64v-270.624c0-21.824-14.912-39.52-33.28-39.52H277.824c-11.584-111.52 21.472-213.76 160.992-218.656 133.472-4.576 150.432-4.576 150.432-4.576s16.896 0 150.432 4.576c221.504 7.808 174.912 260.896 106.784 407.232z m-159.584-108.8v-48.256h-69.152v-19.776h68.416l0.256-48.48-68.672 0.128v-58.048l-54.016 0.352V129.6h-68.48v48.32h68.48v19.776h-68.48v48.256l60.736 0.224-91.904 127.264H524.8l68.192-89.28 60.704 90.016h60.672l-88.704-128 61.216-0.224zM383.776 811.872H34.624c-18.336 0-33.248-17.728-33.248-39.552v-553.28c0-21.792 14.88-39.488 33.248-39.488h349.184c18.4 0 33.28 17.728 33.28 39.488V772.32c-0.032 21.824-14.912 39.552-33.312 39.552zM134.4 238.816c0-10.944-7.456-19.776-16.608-19.776h-49.92c-9.216 0-16.64 8.832-16.64 19.776v59.328c0 10.912 7.456 19.744 16.64 19.744H117.76c9.184 0 16.64-8.832 16.64-19.744v-59.328z m0 138.304c0-10.912-7.456-19.744-16.608-19.744h-49.92c-9.216 0-16.64 8.832-16.64 19.744v59.296c0 10.912 7.456 19.744 16.64 19.744H117.76c9.184 0 16.64-8.832 16.64-19.744v-59.296z m0 138.336c0-10.912-7.456-19.776-16.608-19.776h-49.92c-9.216 0-16.64 8.864-16.64 19.776v59.296c0 10.88 7.456 19.776 16.64 19.776H117.76c9.184 0 16.64-8.864 16.64-19.776v-59.296z m116.384-276.64c0-10.944-7.456-19.776-16.64-19.776H184.288c-9.216 0-16.64 8.832-16.64 19.776v59.328c0 10.912 7.456 19.744 16.64 19.744h49.888c9.184 0 16.64-8.832 16.64-19.744v-59.328z m0 138.304c0-10.912-7.456-19.744-16.64-19.744H184.288c-9.216 0-16.64 8.832-16.64 19.744v59.296c0 10.912 7.456 19.744 16.64 19.744h49.888c9.184 0 16.64-8.832 16.64-19.744v-59.296z m0 138.336c0-10.912-7.456-19.776-16.64-19.776H184.288c-9.216 0-16.64 8.864-16.64 19.776v59.296c0 10.88 7.456 19.776 16.64 19.776h49.888c9.184 0 16.64-8.864 16.64-19.776v-59.296z m116.416-276.64c0-10.944-7.456-19.776-16.64-19.776h-49.92c-9.12 0-16.576 8.832-16.576 19.776v59.328c0 10.912 7.424 19.744 16.576 19.744h49.92c9.184 0 16.64-8.832 16.64-19.744v-59.328z m0 138.304c0-10.912-7.456-19.744-16.64-19.744h-49.92c-9.12 0-16.576 8.832-16.576 19.744v59.296c0 10.912 7.424 19.744 16.576 19.744h49.92c9.184 0 16.64-8.832 16.64-19.744v-59.296z m0 138.336c0-10.912-7.456-19.776-16.64-19.776h-49.92c-9.12 0-16.576 8.864-16.576 19.776v59.296c0 10.88 7.424 19.776 16.576 19.776h49.92c9.184 0 16.64-8.864 16.64-19.776v-59.296z m0 138.304H51.264V752.576h315.936V653.76zM1022.848 562.144a163.104 163.104 0 1 0-326.208 0.064 163.104 163.104 0 0 0 326.208-0.064z m-72.704-116.64h-63.296l8.992 108.512c17.728 0 72.352-18.464 72.352-36.16v-54.24a19.584 19.584 0 0 0-18.048-18.112z m-50.432 154.592a75.456 75.456 0 0 0-14.624-24.192 58.656 58.656 0 0 1-25.344 5.216 58.496 58.496 0 0 1-25.76-5.408 73.216 73.216 0 0 0-14.592 24.544 33.216 33.216 0 0 0-13.952 26.08c0.512 8.928 4.192 17.408 10.496 23.744 3.616 27.104 15.136 39.52 43.776 39.52 28.416 0 40.064-12.288 43.744-39.52 6.272-6.368 10.016-14.816 10.464-23.776a32.48 32.48 0 0 0-14.208-26.208z m-67.072-154.592h-63.296a19.328 19.328 0 0 0-18.08 18.08v54.24c0 17.696 54.624 36.16 72.32 36.16l9.056-108.48z m0 99.456a12.864 12.864 0 0 0 1.344 5.44c8.064-3.776 16.864-5.632 25.792-5.44a57.92 57.92 0 0 1 25.728 5.44 12.48 12.48 0 0 0 1.408-5.44c0-9.952-12.192-18.08-27.136-18.08-15.072 0-27.136 8.128-27.136 18.08z m45.152-99.456h-36.096l8.992 81.344h18.08l9.024-81.344z"  horiz-adv-x="1024" />

    
    <glyph glyph-name="biaozhunmeipaifang" unicode="&#59147;" d="M530.2-32.2c-19.9 0-39.8 5.1-57.6 15.4L200.8 140.1c-35.5 20.5-57.6 58.8-57.6 99.8V553.7c0 41 22.1 79.3 57.6 99.8L472.6 810.4c35.5 20.6 79.7 20.6 115.3 0l271.8-156.9c35.6-20.5 57.6-58.8 57.6-99.8v-313.8c0-41-22.1-79.3-57.6-99.8L587.8-16.8c-17.8-10.3-37.7-15.4-57.6-15.4z m0 820.8c-13.5 0-27-3.5-39-10.4L219.4 621.3c-24.1-13.9-39-39.8-39-67.6v-313.8c0-27.8 15-53.7 39-67.6l271.8-156.9c24.1-13.9 54-13.9 78 0L841 172.3c24.1 13.9 39 39.8 39 67.6V553.7c0 27.8-15 53.7-39 67.6L569.2 778.2c-12 7-25.5 10.4-39 10.4z m90.1-285.2c-3-0.1-5.9 0.8-8.4 2.7l-37.2 28c-5.7 4.3-7.2 12.5-3.3 18.5l22.5 35.4c0.8 1.2 1.7 2.3 2.8 3.2l13.4 11.1c4.1 3.4 9.9 4.1 14.7 1.6 4.3-2.2 18.7-11.6 26.9-17 2.7-1.8 4.7-4.5 5.6-7.6l11.7-39.7c1.9-6.4-1-13.2-6.9-16.2l-35.9-18.5c-2-0.9-3.9-1.4-5.9-1.5z m-23.2 44.3l24-18 22 11.3-8.1 27.6c-6 3.9-11.4 7.4-15.4 9.9l-6.1-5.1-16.4-25.7z m41.1 18.8z m-23.9 8.4z m112.6-154.2c-3.1-0.1-6.2 0.9-8.6 2.8l-21.1 16.4c-4.4 3.4-6.3 9.1-4.9 14.5l7.8 29.6c0.7 2.8 2.3 5.3 4.5 7.1l11.1 9.2c4.2 3.5 10 4.1 14.8 1.5 4.1-2.1 17.3-10.8 22.8-14.4 2.7-1.8 4.7-4.5 5.6-7.6l9.8-33.2c1-3.6 0.6-7.5-1.2-10.7-1.8-3.2-4.7-5.5-8.2-6.5l-29.2-8.2c-1-0.3-2.1-0.5-3.2-0.5z m-9.3 34.2l11.3-8.8 13.4 3.8-5.7 19.3c-4.4 2.9-8.3 5.4-11.4 7.4l-2.5-2-5.1-19.7z m22.3 12.2z m-19.8 5.3z m15.5 0.6z m-16.1-235.7H340.9c-20.4 0-37.1 16.6-37.1 37.1v70.8c0 14 7.7 26.6 20.2 33l35.1 18c3.3 1.7 5.3 5 5.3 8.6v22.9c0 12.4 5 24.5 13.7 33.2l84.4 84.4c7 7 16.3 10.9 26.2 10.9 9.9 0 19.2-3.9 26.2-10.9l80.3-80.3h33.2c21.9 0 41.2-15.5 45.9-36.9l4.3-19.8c0.7-3 2.7-5.6 5.5-6.8l50.8-23.2c13.2-6.1 21.7-19.3 21.7-33.8v-70.2c0-20.3-16.7-37-37.1-37zM341 345.2v-70.8l378.5 0.1-0.1 70.1-50.7 23.1c-13.4 6.1-23.2 18.4-26.3 32.7l-4.3 19.8c-1 4.5-5 7.7-9.5 7.7h-33.3c-9.9 0-19.2 3.9-26.2 10.8L488.8 519l-84.3-84.4c-1.8-1.8-2.8-4.3-2.8-6.9v-22.9c0-17.7-9.8-33.8-25.6-41.8L341 345.2z"  horiz-adv-x="1024" />

    
    <glyph glyph-name="biaozhuntanpaifang" unicode="&#59148;" d="M866.8 652.3L583.4 816c-37.1 21.4-83.2 21.4-120.3 0L179.6 652.3c-37.1-21.4-60.2-61.4-60.2-104.2v-327.3c0-42.9 23.1-82.8 60.2-104.2L463-47.1c18.6-10.7 39.4-16.1 60.2-16.1s41.6 5.4 60.2 16.1l283.4 163.6C903.9 138 927 177.9 927 220.8V548.1c0 42.8-23.1 82.8-60.2 104.2z m21.4-431.5c0-29-15.6-56.1-40.8-70.6L564-13.5c-25.1-14.5-56.4-14.5-81.5 0L199 150.2c-25.1 14.5-40.7 41.5-40.7 70.6V548.1c0 29 15.6 56.1 40.8 70.6l283.4 163.6c12.6 7.3 26.7 10.9 40.8 10.9 14.1 0 28.2-3.6 40.8-10.8l283.4-163.6c25.1-14.5 40.8-41.6 40.8-70.6v-327.4zM232.1 528.1v-289.8c0-10.7-8.7-19.4-19.4-19.4s-19.4 8.7-19.4 19.4V528.1c0 10.7 8.7 19.4 19.4 19.4 10.8 0 19.4-8.7 19.4-19.4z m425.1-211.4H703c-7.8-50.5-27.2-89.3-57.5-115.8-29.5-25.6-69.1-38.8-117.3-38.8-59 0-105.6 20.2-138.2 60.6-31.1 37.3-45.8 87-45.8 148.4 0 60.6 15.5 111.1 47.4 150.6 33.4 42.7 79.2 63.7 137.5 63.7 48.2 0 87-11.6 117.3-35 30.3-23.3 48.9-59 55.1-107.2h-46.6c-5.4 34.2-18.6 59-40.4 76.1S564 545 529 545c-41.9 0-76.1-16.3-101-48.9-24.9-31.1-36.5-73-36.5-125 0-51.3 11.6-92.4 34.9-122.7 23.3-30.3 57.5-45.8 101.7-45.8 74.7-0.1 117.5 37.9 129.1 114.1z"  horiz-adv-x="1024" />

    
    <glyph glyph-name="chanxianxiaoshuaitisheng" unicode="&#59143;" d="M941.62488889 114.57422222000002c-7.28177778-18.20444445-29.12711111-25.48622222-47.33155556-18.20444444-18.20444445 7.28177778-25.48622222 29.12711111-18.20444444 47.33155555 25.48622222 50.97244445 36.40888889 109.22666667 36.40888889 167.48088889 0 47.33155555-7.28177778 91.02222222-21.84533333 131.072-7.28177778 18.20444445 3.64088889 40.04977778 21.84533333 47.33155556s40.04977778-3.64088889 47.33155555-21.84533333c18.20444445-50.97244445 25.48622222-101.94488889 25.48622222-156.55822223 0-69.17688889-14.56355555-134.71288889-43.69066666-196.608zM672.19911111 759.01155555c18.20444445-7.28177778 29.12711111-29.12711111 21.84533334-47.33155555-7.28177778-18.20444445-29.12711111-29.12711111-47.33155556-21.84533333-43.69066667 14.56355555-87.38133333 21.84533333-134.71288889 21.84533333C289.90577778 711.6800000000001 111.50222222 533.27644445 111.50222222 311.18222221999997c0-58.25422222 10.92266667-116.50844445 36.40888889-167.48088889 7.28177778-18.20444445 0-40.04977778-18.20444444-47.33155555-18.20444445-7.28177778-40.04977778 0-47.33155556 18.20444444C53.248 176.46933333000004 38.68444445 242.00533332999998 38.68444445 311.18222221999997 38.68444445 573.32622222 249.856 784.49777778 512 784.49777778c54.61333333 0 109.22666667-10.92266667 160.19911111-25.48622223zM621.22666667 471.38133333l185.68533333 185.68533334c14.56355555 14.56355555 36.40888889 14.56355555 50.97244445 0 14.56355555-14.56355555 14.56355555-36.40888889 0-50.97244445L672.19911111 420.40888889c-14.56355555-14.56355555-36.40888889-14.56355555-50.97244444 0-14.56355555 14.56355555-14.56355555 36.40888889 0 50.97244444zM512 129.13777777999996c-101.94488889 0-182.04444445 80.09955555-182.04444445 182.04444444s80.09955555 182.04444445 182.04444445 182.04444445 182.04444445-80.09955555 182.04444445-182.04444445-80.09955555-182.04444445-182.04444445-182.04444444z m0 72.81777777c61.89511111 0 109.22666667 47.33155555 109.22666667 109.22666667s-47.33155555 109.22666667-109.22666667 109.22666667-109.22666667-47.33155555-109.22666667-109.22666667 47.33155555-109.22666667 109.22666667-109.22666667z"  horiz-adv-x="1024" />

    
    <glyph glyph-name="baojingjilu" unicode="&#59142;" d="M877.2734375 250.14257812000005v-128.23242187l45.703125-91.93359375c1.7578125-4.04296875 2.72460938-8.52539063 2.72460938-12.12890625 0-4.04296875-0.87890625-8.52539063-4.04296877-11.68945312-2.28515625-4.04296875-5.36132813-6.76757813-8.96484373-8.52539063-3.1640625-2.28515625-7.64648438-3.1640625-12.12890626-3.16406249H800.10546875c-4.48242188-16.171875-13.88671875-30.05859375-26.89453125-40.34179689-13.88671875-11.68945313-31.81640625-18.36914063-51.59179688-18.36914062s-37.70507813 6.76757813-51.59179687 18.36914062c-13.0078125 10.72265625-22.41210938 24.69726563-26.89453125 40.34179689H542.234375c-4.48242188 0-8.52539063 0.87890625-12.12890625 3.16406249-3.1640625 2.28515625-6.76757813 4.921875-8.96484375 8.52539063-2.28515625 4.04296875-3.1640625 7.64648438-4.04296875 11.68945312-0.43945313 4.04296875 0.43945313 8.52539063 2.72460938 12.12890625l45.703125 91.93359375V250.14257812000005c0 43.06640625 17.49023438 81.65039063 45.26367187 109.86328126 18.80859375 18.36914063 42.62695313 32.25585938 68.64257813 39.90234375 2.72460938 17.49023438 20.21484375 31.37695313 40.78124999 31.37695312 21.09375001 0 38.58398438-13.44726563 40.78125-31.37695312 26.45507813-7.20703125 49.74609375-21.09375001 68.64257813-39.90234375 30.14648438-28.21289063 47.19726563-66.796875 47.63671875-109.86328125z m-175.34179688-261.91406249c5.36132813-4.04296875 13.0078125-6.76757813 20.65429688-6.76757813s14.32617188 2.28515625 20.21484375 6.76757812c2.72460938 1.7578125 4.921875 4.04296875 6.76757813 6.24023439h-54.22851563c1.23046875-2.19726563 3.42773438-4.48242188 6.59179688-6.24023439zM611.75585938 116.4609375l-38.14453126-76.20117188h296.45507813L831.04296875 118.74609375v131.8359375c0 30.05859375-12.12890625 57.83203125-31.81640625 77.16796875-19.77539063 19.24804688-47.109375 31.81640625-77.16796875 31.81640625s-57.83203125-12.12890625-77.16796875-31.81640625c-19.77539063-19.77539063-31.81640625-47.109375-31.81640625-77.16796875v-131.8359375l-1.31835938-2.28515625z m27.86132812 429.16992188H269.15820311c-8.52539063 0-16.61132813 3.1640625-22.41210936 8.96484373-5.36132813 5.36132813-9.40429689 13.44726563-9.40429686 22.41210939 0 8.52539063 3.1640625 16.61132813 9.40429686 22.41210937 5.36132813 5.36132813 13.88671875 8.96484375 22.41210938 8.96484375h370.45898437c8.52539063 0 16.61132813-3.1640625 22.41210939-8.96484375 5.36132813-5.36132813 9.40429689-13.44726563 9.40429686-22.41210937 0-8.52539063-3.1640625-16.61132813-9.40429688-22.41210939-6.328125-5.80078125-13.88671875-8.96484375-22.41210937-8.96484374zM454.34374999 365.3671875H269.15820311c-8.96484375 0-16.61132813 4.04296875-22.41210936 10.72265625-5.36132813 6.24023438-9.40429689 15.20507813-9.40429686 23.29101563s3.1640625 17.49023438 9.40429686 23.29101562c5.36132813 6.24023438 13.44726563 10.72265625 22.41210938 10.72265625h185.18554688c8.96484375 0 16.61132813-4.04296875 22.41210937-10.72265625 5.36132813-6.24023438 9.40429689-15.20507813 9.40429687-23.29101563s-3.1640625-17.49023438-9.40429688-23.29101562c-5.36132813-6.6796875-13.88671875-10.72265625-22.41210938-10.72265625z m0-180.26367188H269.15820311c-8.96484375 0-16.61132813 4.04296875-22.41210936 10.72265626-5.36132813 6.24023438-9.40429689 15.20507813-9.40429686 23.29101562s3.1640625 17.49023438 9.40429686 23.29101563c5.36132813 6.24023438 13.44726563 10.72265625 22.41210938 10.72265625h185.18554688c8.96484375 0 16.61132813-4.04296875 22.41210937-10.72265625 5.36132813-6.24023438 9.40429689-15.20507813 9.40429687-23.29101563s-3.1640625-17.49023438-9.40429688-23.29101562c-5.36132813-6.6796875-13.88671875-10.72265625-22.41210938-10.72265625z m38.14453126-177.09960937v-13.44726563c0-13.0078125-10.72265625-23.29101563-23.29101563-23.29101562H216.6875c-32.25585938 0-62.75390625 13.44726563-83.84765625 34.54101563s-34.54101563 51.59179689-34.54101563 83.84765624V713.4140625c0 33.22265625 13.44726563 62.75390625 34.54101563 83.84765625S183.90429687 831.80273438 216.6875 831.80273438h523.38867188c7.64648438 0 15.73242188-3.1640625 21.09375-8.96484376 5.36132813-5.36132813 8.96484375-13.0078125 8.96484375-21.09375s-3.1640625-15.73242188-8.96484375-21.09375c-5.36132813-5.36132813-13.0078125-8.96484375-21.09375-8.96484375H216.6875c-16.171875 0-30.9375-6.76757813-41.22070313-17.49023437-10.72265625-10.72265625-17.49023438-25.13671875-17.49023437-41.22070313V89.56640625c0-16.171875 6.76757813-30.9375 17.49023437-41.22070312s25.13671875-17.49023438 41.22070313-17.49023438h252.50976563c12.56835938 0.43945313 23.29101563-9.93164063 23.29101562-22.8515625z m294.16992188 450.17578125V713.4140625c0 16.171875-6.76757813 30.9375-17.49023438 41.22070313-10.72265625 10.72265625-25.13671875 17.49023438-41.22070313 17.49023437h-108.98437499c-8.52539063 0-15.73242188 3.1640625-21.09375 8.96484375-5.36132813 5.36132813-8.96484375 13.0078125-8.96484376 21.09375s3.1640625 15.73242188 8.96484376 21.09375c5.36132813 5.36132813 13.0078125 8.96484375 21.09375 8.96484375h108.984375c33.22265625 0 62.75390625-13.44726563 83.84765625-34.54101563s34.54101563-51.59179689 34.54101562-83.84765624v-255.58593751c0-13.0078125-10.72265625-23.29101563-23.29101562-23.29101562h-13.44726563c-12.12890625-0.08789063-22.93945313 10.72265625-22.93945312 23.203125z"  horiz-adv-x="1024" />

    
    <glyph glyph-name="chanpinshuliang" unicode="&#59139;" d="M803.56 87.23000000000002H222.94c-2.76 0-5 2.24-5 5s2.24 5 5 5h580.62c2.76 0 5-2.24 5-5s-2.23-5-5-5zM264.41 45.75c-2.76 0-5 2.24-5 5V631.38c0 2.76 2.24 5 5 5s5-2.24 5-5v-580.63c0-2.76-2.24-5-5-5zM339.06 88.23000000000002h-24.88c-8.04 0-12.29 4.25-12.29 12.29V498.67c0 8.04 4.25 12.29 12.29 12.29h24.88c8.04 0 12.29-4.25 12.29-12.29v-398.15c0.01-8.04-4.24-12.29-12.29-12.29z m-24.88 414.73c-3.65 0-4.29-0.64-4.29-4.29v-398.15c0-3.65 0.64-4.29 4.29-4.29h24.88c3.65 0 4.29 0.64 4.29 4.29V498.67c0 3.65-0.64 4.29-4.29 4.29h-24.88zM422.01 88.23000000000002h-24.88c-8.04 0-12.29 4.25-12.29 12.29V581.61c0 8.04 4.25 12.29 12.29 12.29h24.88c8.04 0 12.29-4.25 12.29-12.29v-481.09c0-8.04-4.25-12.29-12.29-12.29z m-24.88 497.68c-3.65 0-4.29-0.64-4.29-4.29v-481.09c0-3.65 0.64-4.29 4.29-4.29h24.88c3.65 0 4.29 0.64 4.29 4.29V581.61c0 3.65-0.64 4.29-4.29 4.29h-24.88zM504.96 88.23000000000002h-24.88c-8.04 0-12.29 4.25-12.29 12.29V540.14c0 8.04 4.25 12.29 12.29 12.29h24.88c8.04 0 12.29-4.25 12.29-12.29v-439.62c0-8.04-4.25-12.29-12.29-12.29z m-24.89 456.2c-3.65 0-4.29-0.64-4.29-4.29v-439.62c0-3.65 0.64-4.29 4.29-4.29h24.88c3.65 0 4.29 0.64 4.29 4.29V540.14c0 3.65-0.64 4.29-4.29 4.29h-24.88zM587.9 88.23000000000002h-24.88c-8.04 0-12.29 4.25-12.29 12.29v315.2c0 8.04 4.25 12.29 12.29 12.29h24.88c8.04 0 12.29-4.25 12.29-12.29v-315.2c0.01-8.04-4.25-12.29-12.29-12.29z m-24.88 331.78c-3.65 0-4.29-0.64-4.29-4.29v-315.2c0-3.65 0.64-4.29 4.29-4.29h24.88c3.65 0 4.29 0.64 4.29 4.29v315.2c0 3.65-0.64 4.29-4.29 4.29h-24.88zM670.85 88.23000000000002h-24.88c-8.04 0-12.29 4.25-12.29 12.29V623.0799999999999c0 8.04 4.25 12.29 12.29 12.29h24.88c8.04 0 12.29-4.25 12.29-12.29v-522.56c0-8.04-4.25-12.29-12.29-12.29z m-24.88 539.15c-3.65 0-4.29-0.64-4.29-4.29v-522.56c0-3.65 0.64-4.29 4.29-4.29h24.88c3.65 0 4.29 0.64 4.29 4.29V623.0799999999999c0 3.65-0.64 4.29-4.29 4.29h-24.88zM753.79 88.23000000000002h-24.88c-8.04 0-12.29 4.25-12.29 12.29V457.19c0 8.04 4.25 12.29 12.29 12.29h24.88c8.04 0 12.29-4.25 12.29-12.29v-356.67c0.01-8.04-4.24-12.29-12.29-12.29z m-24.88 373.26c-3.65 0-4.29-0.64-4.29-4.29v-356.67c0-3.65 0.64-4.29 4.29-4.29h24.88c3.65 0 4.29 0.64 4.29 4.29V457.19c0 3.65-0.64 4.29-4.29 4.29h-24.88zM720.62-39.190000000000055H305.88c-52.83 0-83.75 8.38-103.39 28.03s-28.02 50.57-28.02 103.39V672.85c0 52.83 8.38 83.75 28.02 103.4s50.56 28.03 103.39 28.03h414.74c52.83 0 83.75-8.38 103.39-28.03 19.64-19.64 28.03-50.57 28.03-103.4v-580.62c0-52.83-8.38-83.75-28.03-103.39-19.64-19.65-50.56-28.03-103.39-28.03zM305.88 790.27c-48.76 0-76.73-7.16-93.49-23.92-16.77-16.77-23.92-44.73-23.92-93.5v-580.62c0-48.76 7.15-76.73 23.92-93.5s44.73-23.92 93.49-23.92h414.74c48.76 0 76.72 7.16 93.49 23.92s23.92 44.73 23.92 93.5V672.85c0 48.77-7.16 76.73-23.92 93.5-16.77 16.77-44.73 23.92-93.49 23.92H305.88z"  horiz-adv-x="1024" />

    
    <glyph glyph-name="mubiao" unicode="&#59140;" d="M512 384m-512 0a512 512 0 1 1 1024 0 512 512 0 1 1-1024 0ZM270.043429 621.085257h49.415314v-513.799314h-49.400686V621.085257z m484.161828-4.959086c-7.416686 4.959086-14.833371 4.959086-22.235428 2.472229l-49.415315-19.7632c-37.054171-14.833371-79.0528-7.416686-111.147885 14.818743-44.470857 37.054171-106.218057 46.928457-163.035429 24.693028l-49.415314-19.7632c-9.874286-2.472229-14.818743-12.361143-14.818743-22.235428v-296.418743c0-7.416686 4.944457-14.818743 9.874286-19.777829 7.416686-4.944457 14.818743-4.944457 22.235428-2.4576l49.400686 19.7632c37.054171 14.818743 79.0528 7.416686 111.177143-14.818742 27.165257-22.235429 64.219429-34.581943 101.2736-34.581943 19.7632 0 39.511771 2.4576 59.274971 9.874285l49.415314 19.748572c9.874286 4.973714 14.818743 12.375771 14.818743 22.235428V596.362971c2.472229 7.402057-2.4576 14.818743-7.402057 19.7632v0.014629z m-39.5264-298.876342l-32.095086-12.361143c-39.5264-14.818743-81.525029-7.416686-113.634742 17.290971-29.637486 19.7632-66.691657 32.095086-101.2736 32.095086-19.777829 0-39.5264-2.4576-59.2896-9.874286l-14.818743-7.402057V579.086629l32.109714 12.346514c39.511771 14.818743 83.968 9.874286 113.620114-14.818743 46.928457-34.581943 106.203429-44.470857 160.5632-22.235429l14.818743 4.944458v-242.0736z"  horiz-adv-x="1024" />

    
    <glyph glyph-name="wanchengshuai" unicode="&#59141;" d="M723.083636 456.378182l123.345455 60.043636a366.312727 366.312727 0 0 0 16.989091-279.272727l-129.629091 44.450909a231.330909 231.330909 0 0 1 12.334545 74.472727 226.909091 226.909091 0 0 1-23.272727 100.305455zM733.789091 281.6l129.629091-44.683636a365.847273 365.847273 0 0 0-202.938182-217.6l-53.527273 126.138181a230.4 230.4 0 0 1 126.836364 136.145455zM606.952727 145.454545l53.527273-126.138181a365.614545 365.614545 0 0 0-406.109091 82.618181L353.047273 197.818182a228.770909 228.770909 0 0 1 253.905454-51.665455zM353.047273 197.818182l-98.676364-95.185455a365.847273 365.847273 0 0 0-78.429091 122.88l128 49.338182A232.727273 232.727273 0 0 1 353.047273 197.818182zM303.941818 274.152727l-128-49.338182a365.847273 365.847273 0 0 0 670.487273 291.607273l-123.345455-60.043636a228.770909 228.770909 0 0 1-418.909091-182.225455zM437.061818 395.636364h-28.625454a46.545455 46.545455 0 0 0 12.567272 27.694545 46.545455 46.545455 0 0 0 35.607273 14.661818 44.916364 44.916364 0 0 0 32.116364-12.334545 38.167273 38.167273 0 0 0 13.032727-28.858182 33.512727 33.512727 0 0 0-5.818182-18.850909 39.330909 39.330909 0 0 0-16.523636-13.963636 42.123636 42.123636 0 0 0 23.272727-14.661819 40.261818 40.261818 0 0 0 7.912727-24.901818 46.545455 46.545455 0 0 0-15.36-35.607273 55.854545 55.854545 0 0 0-39.563636-14.42909 52.130909 52.130909 0 0 0-36.770909 13.498181 55.389091 55.389091 0 0 0-15.592727 37.469091h29.323636a28.858182 28.858182 0 0 1 8.378182-17.92 23.272727 23.272727 0 0 1 16.523636-5.818182 23.272727 23.272727 0 0 1 17.221818 6.516364 21.643636 21.643636 0 0 1 6.749091 16.290909 23.272727 23.272727 0 0 1-9.076363 17.92 43.287273 43.287273 0 0 1-26.530909 7.68v25.367273a46.545455 46.545455 0 0 1 15.825454 3.258182 19.549091 19.549091 0 0 1 8.145455 6.749091 15.825455 15.825455 0 0 1 3.025454 9.309091 14.429091 14.429091 0 0 1-4.421818 10.472727 16.523636 16.523636 0 0 1-11.636364 4.189091 19.316364 19.316364 0 0 1-11.636363-3.723637 18.850909 18.850909 0 0 1-8.145455-10.007272zM577.396364 437.992727a51.898182 51.898182 0 0 0 29.556363-8.378182 55.156364 55.156364 0 0 0 19.083637-25.6 137.309091 137.309091 0 0 0 6.749091-47.941818 137.076364 137.076364 0 0 0-6.981819-48.174545 52.596364 52.596364 0 0 0-18.385454-25.367273 48.174545 48.174545 0 0 0-29.090909-8.145454 50.269091 50.269091 0 0 0-29.556364 8.145454 51.665455 51.665455 0 0 0-18.618182 24.669091 127.069091 127.069091 0 0 0-6.981818 46.545455 114.967273 114.967273 0 0 0 13.265455 62.370909 46.545455 46.545455 0 0 0 40.96 21.876363z m0-28.16a20.247273 20.247273 0 0 1-13.265455-4.887272 32.349091 32.349091 0 0 1-8.843636-16.523637 143.825455 143.825455 0 0 1-3.025455-34.443636 84.712727 84.712727 0 0 1 6.981818-40.96 21.178182 21.178182 0 0 1 18.152728-11.170909 19.083636 19.083636 0 0 1 17.221818 10.705454 89.6 89.6 0 0 1 7.68 43.287273 93.090909 93.090909 0 0 1-6.749091 42.356364 20.945455 20.945455 0 0 1-17.454546 11.636363z"  horiz-adv-x="1024" />

    
    <glyph glyph-name="zhiliangbaozheng" unicode="&#59137;" d="M512 896C337.389682 710.778283 88.398988 735.068831 88.398988 735.068831v-498.006532c466.109471-821.390173 847.202023 0 847.202024 0V735.068831S668.379834 704.705645 512 896z m189.30786-388.799646L422.708347 228.60083999999995a22.869828 22.869828 0 0 0-32.223952 0l-118.825038 118.83761a22.773018 22.773018 0 0 0 32.211379 32.198807l102.731921-102.731921 262.493824 262.506397a22.781819 22.781819 0 0 0 32.211379-32.211379z"  horiz-adv-x="1024" />

    
    <glyph glyph-name="nengyuanguanli" unicode="&#59138;" d="M915.36134469 864h-806.72268938A56.47058813 56.47058813 0 0 1 52.16806719 807.52941187v-847.05882374a56.47058813 56.47058813 0 0 1 56.47058812-56.47058813h806.72268938a56.47058813 56.47058813 0 0 1 56.47058812 56.47058813v847.05882375A56.47058813 56.47058813 0 0 1 915.36134469 864zM899.22689094-23.394958129999964H124.77310906V791.39495813H899.22689094zM269.98319281 724.03361344h484.03361438v-76.63865532h-484.03361438zM684.63865531 428.36974781h-101.24369719l40.33613438 104.47058813a29.04201656 29.04201656 0 0 1-26.62184906 40.33613437H454.31932812a28.63865531 28.63865531 0 0 1-26.21848781-16.94117625l-115.36134469-260.16806718a28.63865531 28.63865531 0 0 1 26.21848782-40.33613438h111.32773125L425.68067188 57.27731061999998a28.63865531 28.63865531 0 0 1 52.43697562-19.36134468l230.31932719 345.68067281a28.63865531 28.63865531 0 0 1-23.79831938 44.77310906z m-185.94957937-239.59663875l13.31092406 98.42016844a25.81512563 25.81512563 0 0 1-25.81512562 29.04201656H395.83193281l80.67226875 181.10924344h75.83193282l-40.33613438-93.98319281a25.81512563 25.81512563 0 0 1 24.20168062-35.49579844h80.67226875z"  horiz-adv-x="1024" />

    
    <glyph glyph-name="shengchanzonglan" unicode="&#59423;" d="M677.33276445 48.000568889999954c0 10.66659082-10.66659082 21.33318163-21.33318163 21.33318163H368.00041718c-10.66780445 0-21.33318163-10.66780445-21.33318163-21.33318163v-85.33394014H138.66689422v-58.6668563h746.66621156v64.00075852H677.33276445v80.00003792z m250.66670458 815.99965866H96.00053097c-32.00098608 0-64.00075852-26.66708385-64.00075852-64.00075852v-586.6661357c0-31.99977245 26.66708385-63.99954489 64.00075852-63.99954488h831.99893806c32.00098608 0 64.00075852 26.66587022 64.00075852 63.99954488V799.99946903c0 37.33367467-31.99977245 64.00075852-64.00075852 64.00075852z m0-623.99981037c0-10.66780445-10.66659082-21.33318163-21.33318162-21.33318163h-789.33257482c-10.66780445 0-21.33318163 10.66659082-21.33318162 21.33318163V778.66628741c0 10.66780445 10.66659082 21.33318163 21.33318162 21.33318162h789.33257482c10.66780445 0 21.33318163-10.66659082 21.33318162-21.33318162v-538.66587023z m-229.33230933 58.6668563h106.66590815v271.9986726h-106.66590815v-271.9986726z m-165.33276445 0h106.66590816V655.9986725900001h-106.66590816v-357.33261274z m-314.6674631 0h106.66590815v106.66590815h-106.66590815v-106.66590815z m149.33348503 0h106.66590815V490.66590815h-106.66590815v-191.9998483z"  horiz-adv-x="1024" />

    
    <glyph glyph-name="quanjushebeizonglan" unicode="&#59135;" d="M992 744v-840l-300 120-360-120-300 120V864l300-120L514.76 804.9A297.12 297.12 0 0 0 692 864a298.26 298.26 0 0 0 205.02-82.02zM272 643.98L152 684v-600l120-40.02v600zM872 84V278.88a2698.68 2698.68 0 0 0-107.58-159zM794 710.1L692 744l-102-33.9A196.68 196.68 0 0 1 512 551.1600000000001C512 444.66 692 204 692 204s180 240.66 180 347.16a196.86 196.86 0 0 1-78 158.94zM392 564v-520.02l227.58 75.9C530.78 242.15999999999997 392 451.26 392 563.88a296.34 296.34 0 0 0 13.56 84.54L392 643.86V564z m180 0a120 120 0 1 0 120-120 120 120 0 0 0-120 120z"  horiz-adv-x="1024" />

    
    <glyph glyph-name="zhiliangguanli" unicode="&#59136;" d="M509.682767-127.993606a42.838768 42.838768 0 0 0-19.820923 4.475692L480.271075-117.76345300000003c-63.938459 29.411691-383.630755 186.060916-383.630755 388.106448v447.569214a47.31446 47.31446 0 0 0 14.705846 34.526768A45.396306 45.396306 0 0 0 146.512318 767.144823h35.166153A434.142138 434.142138 0 0 1 455.974461 859.855589L480.271075 882.23405a48.593229 48.593229 0 0 0 67.774767 0l23.017846-24.296615c63.938459-63.938459 208.439377-88.874458 276.853528-92.071381h32.608614a48.593229 48.593229 0 0 0 46.035691-47.953845v-447.569214c0-247.441837-347.825218-377.236909-388.106448-391.303371l-12.787692-4.475692a46.675075 46.675075 0 0 0-15.984614-2.557538zM224.517238 669.31898a31.329845 31.329845 0 0 1-31.969229-30.051075v-368.92491c0-109.97415 179.66707-228.260299 296.035066-287.083682a58.823382 58.823382 0 0 1 48.593229 0c115.089227 46.675075 293.477528 153.452302 293.477528 289.001836V639.2679049999999a32.608614 32.608614 0 0 1-29.411691 31.969229 639.384592 639.384592 0 0 0-271.099067 103.580304 31.96923 31.96923 0 0 1-39.002461 0A564.576595 564.576595 0 0 0 224.517238 669.31898zM684.23476 424.434682a452.044907 452.044907 0 0 0-5.754461-76.726151 230.178453 230.178453 0 0 0-15.34523-56.905229 127.876918 127.876918 0 0 0-25.575384-39.641845 95.907689 95.907689 0 0 0-34.526768-24.935999L672.086453 127.76023099999998H544.209535l-41.559999 81.201843a234.014761 234.014761 0 0 0-69.69292 10.869538 118.28615 118.28615 0 0 0-50.511383 35.805537A162.403686 162.403686 0 0 0 352.394157 319.575608a399.61537 399.61537 0 0 0-11.508923 104.859074A401.533524 401.533524 0 0 0 352.394157 529.933139a171.355071 171.355071 0 0 0 33.887383 63.93846 114.449842 114.449842 0 0 0 54.347691 33.247998A255.753837 255.753837 0 0 0 511.60092 639.2679049999999a251.917529 251.917529 0 0 0 72.889844-9.590769 114.449842 114.449842 0 0 0 54.34769-33.247999 162.403686 162.403686 0 0 0 33.247999-63.938459 398.336601 398.336601 0 0 0 12.148307-108.055996z m-234.654145 0a438.61783 438.61783 0 0 1 3.196923-56.265845 101.022766 101.022766 0 0 1 8.951384-35.805537 42.838768 42.838768 0 0 1 19.181538-19.181537 80.562459 80.562459 0 0 1 30.69046-5.115077A80.562459 80.562459 0 0 1 544.209535 313.18176300000005a42.838768 42.838768 0 0 1 19.181537 19.181537 115.089227 115.089227 0 0 1 9.590769 35.805537 455.881214 455.881214 0 0 1 0 56.265845 480.817213 480.817213 0 0 1 0 56.905228 115.089227 115.089227 0 0 1-9.590769 35.805538 42.838768 42.838768 0 0 1-19.181537 19.181537 69.053536 69.053536 0 0 1-30.690461 5.754462 69.053536 69.053536 0 0 1-33.247999-5.754462 42.838768 42.838768 0 0 1-19.181537-19.181537 101.022766 101.022766 0 0 1-8.951385-35.805538 465.471983 465.471983 0 0 1-2.557538-56.905228z"  horiz-adv-x="1024" />

    
    <glyph glyph-name="shenghuoyuannengyuanxiaohao30" unicode="&#59457;" d="M512 896l35.054933-44.885333 28.3648-37.4784C682.496 670.6176 887.466667 377.6512 887.466667 231.1168c0-193.501867-160.017067-351.232-360.379734-358.843733L512-128C304.64-128 136.533333 32.76800000000003 136.533333 231.08266700000001 136.533333 394.581333 391.543467 740.2496 481.28 856.746667L512 896z m0-111.5136l-18.875733-25.156267C330.752 541.4911999999999 204.8 329.72799999999995 204.8 231.08266700000001 204.8 71.168 341.674667-59.733333000000016 510.702933-59.733333000000016l13.824 0.238933C689.425067-53.24800000000005 819.2 75.53706699999998 819.2 231.08266700000001c0 98.2016-125.405867 309.521067-288.256 528.110933L512 784.4864zM512 554.666667v-204.8h170.666667l-170.666667-273.066667v204.8H341.333333l170.666667 273.066667z"  horiz-adv-x="1024" />

    
    <glyph glyph-name="shengyin" unicode="&#59134;" d="M534.002 775.627c-9.072 0-18.606-3.172-26.314-9.534L280.869 570.125H121.643c-34.475 0-62.154-27.679-62.154-61.702l-0.452-268.551c0-34.023 28.131-62.145 62.606-62.145h161.494l223.648-176.016c8.159-6.805 17.241-9.517 26.313-9.517 21.761 0 41.73 16.782 41.73 41.271l0.904 700.873c0.462 24.508-19.951 41.289-41.73 41.289z m-20.873-699.968L321.244 226.724c-10.889 8.612-24.498 13.148-38.107 13.148H120.73l0.913 268.108 159.226 0.442c14.973 0 29.034 5.458 40.375 14.974L514.04 689.879l-0.911-614.22zM696.409 587.367c-14.07 9.516-33.58 5.44-42.652-8.63-9.517-14.052-5.44-33.562 8.629-42.635 48.075-32.215 77.119-85.288 77.119-141.992 0-54.879-27.219-106.605-72.582-138.803-14.07-9.994-17.242-29.044-7.266-43.096 5.901-8.63 15.417-13.166 25.41-13.166 6.344 0 12.688 1.824 17.686 5.9 61.702 44 98.436 114.775 98.436 189.625-0.001 77.118-39.002 149.241-104.78 192.797zM827.503 700.316c-12.705 11.341-32.215 10.438-43.557-2.268-11.34-12.705-10.419-32.198 2.269-43.539 74.407-66.699 117.043-161.502 117.043-260.399 0-96.629-39.003-186.435-109.777-253.134-12.244-11.784-13.148-31.294-1.364-43.539 5.9-6.361 14.07-9.533 22.682-9.533 7.708 0 15.435 2.729 21.318 8.63C919.135 175.459 964.96 281.161 964.96 394.57c0.442 115.678-49.458 227.263-137.457 305.746z"  horiz-adv-x="1024" />

    
    <glyph glyph-name="wailian-moren" unicode="&#59133;" d="M256 896h512c140.8 0 256-115.2 256-256v-512c0-140.8-115.2-256-256-256H256c-140.8 0-256 115.2-256 256V640c0 140.8 115.2 256 256 256zM256 832C147.2 832 64 748.8 64 640v-512c0-108.8 83.2-192 192-192h512c108.8 0 192 83.2 192 192V640c0 108.8-83.2 192-192 192H256z m0 64h512c140.8 0 256-115.2 256-256v-512c0-140.8-115.2-256-256-256H256c-140.8 0-256 115.2-256 256V640c0 140.8 115.2 256 256 256zM428.8 326.4c-12.8 12.8-12.8 32 0 44.8 12.8 12.8 38.4 12.8 44.8 0 6.4-6.4 12.8-12.8 19.2-12.8 44.8-25.6 102.4-12.8 128 32l64 108.8c25.6 44.8 12.8 102.4-32 128-44.8 25.6-102.4 12.8-128-32L480 512c-12.8-12.8-32-19.2-44.8-12.8-19.2 12.8-25.6 32-12.8 44.8l44.8 83.2c44.8 70.4 147.2 96 217.6 57.6s102.4-140.8 57.6-211.2l-64-108.8c-38.4-76.8-140.8-108.8-211.2-64-12.8 6.4-25.6 19.2-38.4 25.6zM544 256c12.8 12.8 32 19.2 44.8 12.8s19.2-25.6 12.8-44.8l-44.8-83.2c-44.8-76.8-140.8-102.4-217.6-57.6s-102.4 140.8-57.6 211.2l64 108.8C384 480 486.4 512 556.8 467.2c12.8-6.4 25.6-19.2 38.4-25.6 12.8-12.8 12.8-32 0-44.8-12.8-12.8-38.4-12.8-44.8 0-6.4 6.4-12.8 12.8-25.6 12.8-44.8 25.6-102.4 12.8-128-32l-64-108.8c-25.6-44.8-12.8-102.4 32-128s102.4-12.8 128 32l51.2 83.2z"  horiz-adv-x="1024" />

    
    <glyph glyph-name="wailianmulu" unicode="&#59132;" d="M455.224889 724.593778c12.572444-33.223111 48.014222-56.092444 84.935111-57.571556H910.222222c31.004444 0 56.888889-26.567111 56.888889-57.628444v-515.470222a58.026667 58.026667 0 0 0-56.888889-57.628445H114.062222c-31.061333 0-56.888889 26.624-56.888889 57.628445V724.593778a58.026667 58.026667 0 0 0 56.888889 57.628444h284.330667m0-0.739555c27.306667-1.479111 49.493333-34.702222 56.888889-57.628445M568.888889 440.888889m34.133333 0l386.844445 0q34.133333 0 34.133333-34.133333l0-273.066667q0-34.133333-34.133333-34.133333l-386.844445 0q-34.133333 0-34.133333 34.133333l0 273.066667q0 34.133333 34.133333 34.133333ZM840.078222 269.937778l-95.004444-79.189334a61.952 61.952 0 1 0-23.779556 28.558223l95.004445 79.189333a61.952 61.952 0 1 0 23.779555-28.558222z"  horiz-adv-x="1024" />

    
    <glyph glyph-name="quexian1" unicode="&#59130;" d="M596.48 484.352c0 19.456-15.872 35.328-35.328 35.328s-35.328-15.872-35.328-35.328V250.88c0-19.456 15.872-35.328 35.328-35.328 19.456 0 35.328 15.872 35.328 35.328V484.352zM561.152 188.41600000000005c-15.872 0-28.672-12.8-28.672-28.672v-50.688c0-15.36 12.8-27.648 28.16-27.648h1.024c15.36 0 28.16 12.8 28.16 28.672v50.176c0 15.36-12.8 28.16-28.672 28.16zM591.872 36.351999999999975H203.264l358.4 656.896 152.576-281.088c8.704-16.896 29.184-23.04 47.616-14.336 16.896 8.704 23.04 29.184 14.336 47.616l-182.784 338.944c-6.656 10.752-18.432 17.408-31.744 17.408-12.288 0-24.576-6.656-31.744-17.408L113.152 18.94399999999996c-5.12-11.264-5.12-24.064 0-35.328 7.168-10.752 18.944-17.408 31.744-17.408H591.872c18.432 1.024 32.768 16.384 32.768 35.328 0 18.432-14.336 33.792-32.768 34.816zM906.24 232.96000000000004l-96.768 96.768c-5.632 7.68-14.848 12.288-24.064 12.288-9.728 0-18.944-4.608-24.064-12.288l-93.696-95.744c-5.632-5.12-8.704-12.8-8.704-20.48s3.072-14.848 8.704-20.48c10.24-9.728 25.088-11.776 37.376-5.632l1.024 0.512 52.224 53.76v-244.224c-1.024-10.752 4.096-21.504 13.312-27.136 4.608-3.072 9.728-4.608 15.36-4.608s10.752 1.536 15.36 4.608c9.216 5.632 14.336 16.384 13.312 27.136v245.248l50.688-50.176c5.12-5.632 12.8-9.216 20.48-9.216s14.848 3.072 19.968 8.704c5.12 5.12 8.704 12.8 8.704 20.48-0.512 7.68-3.584 14.848-9.216 20.48z"  horiz-adv-x="1024" />

    
    <glyph glyph-name="quexian2" unicode="&#59131;" d="M242.4655 164.04841499999998l-58.662675-12.28474-105.369015-158.789391 19.838031-19.728563 19.838031-19.765053 159.981375 104.687881 12.430698 58.236967 131.580515 130.704772-47.934813 47.703714L242.4655 164.04841499999998z m573.746024 597.865469c5.509888 5.534215 14.571405 5.534215 20.142109 0 5.63152-5.534215 5.63152-14.534915 0-20.032641L605.53431 512.6309610000001l36.002803-35.771704 230.758508 229.250282c5.63152 5.558541 14.63222 5.558541 20.190761 0 2.70021-2.627232 4.232762-6.239675 4.232762-10.010239 0-3.770564-1.520389-7.383007-4.232762-10.010238L661.679222 456.863106l32.329544-32.074119c0.54734 0.510851 1.106843 0.814928 1.654183 1.398757l24.423523 24.228914v-0.03649L915.766573 644.685838c39.067907 38.751666 39.067907 101.549799 0 140.277138-39.007091 38.751666-102.303911 38.775992-141.311003 0L580.003944 591.9709230000001l-25.651998-25.50604c-0.486524-0.571666-0.863581-1.179822-1.350105-1.690673l32.268729-32.134934 230.940954 229.274608zM483.818076 576.134554c3.296203 18.086543 4.159783 36.53798 2.5056 54.782644-4.098968 45.161624-23.51129 89.240732-58.285619 123.796126-59.830334 59.331647-147.623656 73.708442-221.088836 43.252016l118.724109-117.75106c17.818955-17.782466 17.879771-46.609034-0.060815-64.415827l-49.528181-49.126798c-17.818955-17.72165-46.888786-17.782466-64.659088 0l-116.084715 115.269786c-26.393947-71.190678-10.958961-154.106593 46.596872-211.261043 31.526779-31.247028 70.777132-49.807932 111.620853-56.169239 19.339344-2.979962 39.007091-3.186735 58.40725-0.608155C435.445391 291.189395 740.423191-11.599045000000046 740.423191-11.599045000000046c46.28063-45.867085 121.472972-45.867085 167.692786 0 22.343632 22.222 34.713514 51.729703 34.713514 83.122688 0 31.49029-12.369882 61.095297-34.774329 83.317298L483.818076 576.134554z m387.808574-551.451044c-24.180261-23.985651-63.187352-23.985651-87.428429-0.060816-23.997814 23.888346-23.997814 62.798133 0.060815 86.698643 24.180261 23.827531 63.187352 23.888346 87.306798 0 24.192424-23.90051 24.119446-62.810296 0.060816-86.637827z m0 0"  horiz-adv-x="1024" />

    
    <glyph glyph-name="yuqi" unicode="&#59129;" d="M468.59264 833.34144c17.96096 0 35.91168 0 53.87264 0 2.31424-0.50176 4.608-1.31072 6.94272-1.47456 56.09472-3.76832 109.9264-17.0496 160.32768-41.76896 141.48608-69.40672 228.01408-181.56544 258.26304-336.50688 3.40992-17.47968 4.88448-35.34848 7.26016-53.03296 0-17.96096 0-35.91168 0-53.87264-0.52224-2.57024-1.34144-5.10976-1.52576-7.70048-4.5056-64.44032-21.54496-125.51168-52.85888-181.88288-71.80288-129.25952-180.48-208.50688-326.13376-236.06272-17.2544-3.26656-34.84672-4.80256-52.2752-7.14752-17.96096 0-35.91168 0-53.87264 0-2.31424 0.50176-4.608 1.31072-6.94272 1.47456-64.45056 4.41344-125.52192 21.36064-181.9648 52.57216C150.25152 39.49568 70.92224 148.10112 43.0592 293.65248c-3.34848 17.50016-4.87424 35.34848-7.24992 53.03296 0 17.96096 0 35.91168 0 53.87264 0.52224 2.57024 1.3312 5.12 1.51552 7.71072 5.13024 71.30112 25.4464 138.05568 62.5664 199.03488 72.87808 119.7056 178.37056 193.1264 316.42624 218.90048C433.58208 829.42976 451.16416 831.00672 468.59264 833.34144zM517.75488 280.55552c1.85344 0.93184 3.21536 1.536 4.51584 2.27328 114.98496 65.64864 229.9392 131.34848 345.02656 196.83328 5.7344 3.26656 6.12352 6.43072 4.3008 12.1344-15.01184 46.92992-37.91872 89.5488-68.53632 128.14336C688.1792 764.76416 481.9456 810.36288 317.98272 725.0432c-122.59328-63.78496-193.35168-165.77536-213.3504-302.592-2.304-15.7696-2.36544-31.86688-3.55328-49.05984 5.5296 2.00704 9.1648 3.25632 12.73856 4.63872 56.2688 21.77024 112.56832 43.4688 168.74496 65.47456 6.99392 2.74432 11.9808 2.62144 18.46272-2.24256 58.15296-43.59168 116.67456-86.70208 175.08352-129.95584C490.0352 301.01504 503.97184 290.73408 517.75488 280.55552zM888.35072 410.22464c-4.80256-2.65216-7.68-4.1984-10.52672-5.81632-118.62016-67.72736-237.27104-135.39328-355.74784-203.38688-6.69696-3.84-10.93632-3.90144-17.18272 0.74752C433.43872 255.03744 361.6768 307.9168 290.2016 361.1648c-5.9392 4.42368-10.56768 5.41696-17.67424 2.6112-46.65344-18.47296-93.51168-36.41344-140.31872-54.50752-24.82176-9.59488-24.832-9.5744-17.92-35.25632 41.91232-155.89376 167.53664-267.89888 327.68-290.4064 94.43328-13.27104 183.18336 5.20192 263.41376 56.91392 109.49632 70.57408 170.31168 171.91936 182.67136 301.66016C890.14272 364.01152 888.35072 386.22208 888.35072 410.22464z"  horiz-adv-x="1024" />

    
    <glyph glyph-name="fuheshuai" unicode="&#59128;" d="M551.936 423.936V896c258.56-1.536 470.528-213.504 472.064-472.064h-472.064z m392.192-79.872c0-260.608-210.944-472.064-472.064-472.064C211.456-128 0 82.944 0 344.064c0 260.608 211.456 472.064 472.064 472.064v-472.064h472.064z"  horiz-adv-x="1024" />

    
    <glyph glyph-name="kg" unicode="&#59127;" d="M183.81266609 779.5078125v-379.51919907l217.95004999 201.96143656h89.19963398L299.03425457 426.91680533 509.47548213 166.89145624000002H422.80036602l-169.98420891 216.20230636L183.81266609 320.88705093V166.89145624000002H116.4921875V779.5078125zM887.29872284 527.05601701v74.89403298h67.3204786V197.18567143999996C954.61920144 58.401915150000036 888.0884438-11.5078125 756.03673567-11.5078125c-58.90541876 0-104.34674198 11.78108391-134.64095795 35.34325095q-46.69710917 35.34325095-58.06391256 106.02975441h67.32047859c5.04903575-29.45270977 17.67162586-51.33186516 37.02626338-64.73122955 19.4193687-14.24087059 48.80734728-21.87915539 88.35812854-21.87915538 87.51662233 0 131.27493386 48.80734728 131.27493309 144.73902866v76.51231344c-31.97722764-58.06391256-80.78457415-87.51662233-146.42204109-87.51662231-60.58843119 0-108.55427227 21.03764994-143.89752322 62.27144284-35.34325095 40.39228747-52.17337136 91.72415261-52.17337136 154.83710092 0 63.95445451 16.83011965 115.22158848 52.17337136 155.67860713 35.34325095 42.91680533 83.3090928 63.95445451 143.89752322 63.95445528 65.63746694 0.06473119 114.43186752-28.61120356 146.40909517-86.67511688z m-238.14619372-15.98861343c-23.56216782-28.61120356-35.34325095-68.16198481-35.34325094-116.9693321 0-45.4413232 10.09807148-83.3090928 31.07098946-111.92029558 23.56216782-31.97722764 58.06391256-48.80734728 105.18824819-48.80734729 43.75831155 0 77.41855085 15.14710799 102.66373031 45.4413232 23.56216782 29.45270977 35.34325095 68.16198481 35.34325095 115.22158848 0 48.80734728-11.78108391 88.35812853-35.34325095 116.96933209-25.24517948 31.97722764-58.90541876 47.12433486-101.8222241 47.12433486-43.69357958 0.06473119-77.35381966-15.0823768-101.75749292-47.05960366z"  horiz-adv-x="1085" />

    
    <glyph glyph-name="caozuo" unicode="&#59125;" d="M809.472 489.984h-2.56c-16.896 0-31.232-5.12-44.544-13.312-11.776 34.304-41.984 59.392-80.896 59.392-16.896 0-33.28-5.12-47.104-13.312-11.776 34.304-41.984 59.392-80.896 59.392-15.36 0-29.184-3.584-41.472-10.24V660.48c0 48.128-36.352 87.552-85.504 87.552-48.64 0-88.064-39.424-88.064-87.552v-339.968l-53.76 53.248c-34.304 34.304-95.232 29.184-124.928 0-29.184-29.184-48.64-88.576-6.656-130.56l246.272-244.736c5.12-5.12 10.752-9.216 16.384-12.8 45.056-36.864 96.256-58.368 205.312-58.368 248.832 0 271.872 134.144 271.872 299.52v175.104c1.024 48.64-34.304 88.064-83.456 88.064z m38.4-262.656c0-139.776-0.512-253.44-225.28-253.44-95.232 0-152.064 20.992-195.584 64l-233.472 231.936c-20.48 20.48-15.36 47.104 1.536 64 16.896 16.896 48.128 17.408 64 1.024 0 0 40.96-40.448 76.288-75.776 26.624-26.624 50.176-49.664 50.176-49.664v441.856c0 23.04 18.944 41.472 41.984 41.472 23.04 0 38.912-18.432 38.912-41.472v-281.088h0.512c-0.512-1.536-0.512-3.072-0.512-4.608 0-12.8 10.24-23.04 23.04-23.04s23.04 10.24 23.04 23.04c0 1.536 0 3.072-0.512 4.608h0.512v115.2c0 23.04 16.896 41.472 39.936 41.472 0 0 40.96 0.512 40.96-41.472v-152.064h0.512c-0.512-1.536-0.512-3.072-0.512-4.608 0-12.8 10.24-23.04 23.04-23.04s23.04 10.24 23.04 23.04c0 1.536 0 3.072-0.512 4.608h0.512v105.984c0 23.04 16.384 41.472 39.424 41.472 0 0 41.984-2.56 41.984-41.472v-133.632h0.512c-0.512-1.536-0.512-3.072-0.512-4.608 0-12.8 10.24-23.04 23.04-23.04s22.528 10.24 22.528 23.04c0 1.536 0 3.072-0.512 4.608h0.512v91.136c0 23.04 17.408 41.472 40.448 41.472 0 0 40.448 1.536 40.448-41.472 0.512 0 0.512-132.608 0.512-169.472z m-543.232 302.592v77.312c-7.168 16.384-11.776 34.816-11.776 54.272 0 73.216 59.392 133.12 133.12 133.12 73.216 0 133.12-59.392 133.12-133.12 0-10.24-1.024-19.968-3.072-29.184 16.896-0.512 31.744-7.68 43.008-18.944 4.096 15.36 6.656 31.232 6.656 47.616 0 98.816-80.384 179.2-179.2 179.2s-179.2-80.384-179.2-179.2c-0.512-51.712 22.016-98.304 57.344-131.072z"  horiz-adv-x="1024" />

    
    <glyph glyph-name="shebei1" unicode="&#59126;" d="M795.927273 663.272727h-228.072728c-39.563636 0-69.818182-30.254545-69.818181-69.818182v-228.072727c0-39.563636 30.254545-69.818182 69.818181-69.818182h93.09091c6.981818 0 13.963636 6.981818 13.963636 13.963637s-6.981818 13.963636-13.963636 13.963636h-93.09091c-23.272727 0-44.218182 18.618182-44.218181 44.218182V593.454545c0 23.272727 18.618182 44.218182 44.218181 44.218182h228.072728c23.272727 0 44.218182-18.618182 44.218182-44.218182v-167.563636c-4.654545 4.654545-9.309091 4.654545-13.963637 4.654546h-27.927273c-34.909091 0-60.509091-27.927273-60.50909-60.509091v-39.563637c0-18.618182 16.290909-32.581818 32.581818-32.581818h25.6c39.563636 0 69.818182 30.254545 69.818182 69.818182V593.454545c2.327273 37.236364-30.254545 69.818182-69.818182 69.818182z m44.218182-295.563636c0-23.272727-18.618182-44.218182-44.218182-44.218182h-25.6c-4.654545 0-6.981818 2.327273-6.981818 6.981818v39.563637c0 18.618182 16.290909 34.909091 34.90909 34.909091h27.927273c6.981818 0 13.963636-6.981818 13.963637-13.963637v-23.272727zM574.836364 558.545455h225.745454c6.981818 0 13.963636 6.981818 13.963637 13.963636s-6.981818 13.963636-13.963637 13.963636h-225.745454c-6.981818 0-13.963636-6.981818-13.963637-13.963636 0-9.309091 6.981818-13.963636 13.963637-13.963636z m0-86.109091h225.745454c6.981818 0 13.963636 6.981818 13.963637 13.963636s-6.981818 13.963636-13.963637 13.963636h-225.745454c-6.981818 0-13.963636-6.981818-13.963637-13.963636s6.981818-13.963636 13.963637-13.963636z m134.981818-58.181819h-134.981818c-6.981818 0-13.963636-6.981818-13.963637-13.963636s6.981818-13.963636 13.963637-13.963636h134.981818c6.981818 0 13.963636 6.981818 13.963636 13.963636-2.327273 6.981818-6.981818 13.963636-13.963636 13.963636z m-337.454546 93.09091c20.945455 34.909091 20.945455 79.127273 0 111.70909-23.272727 37.236364-67.490909 55.854545-109.381818 46.545455-4.654545 0-9.309091-4.654545-11.636363-9.309091-4.654545-2.327273-4.654545-9.309091 0-13.963636l34.90909-53.527273-30.254545-16.290909-34.909091 55.854545c-2.327273 4.654545-6.981818 6.981818-13.963636 6.981819-4.654545 0-9.309091-2.327273-13.963637-4.654546C165.236364 593.454545 162.909091 544.581818 186.181818 507.345455c20.945455-34.909091 62.836364-53.527273 102.4-48.872728l109.381818-181.527272c4.654545-9.309091 13.963636-13.963636 20.945455-16.29091h9.309091c6.981818 0 13.963636 2.327273 18.618182 4.654546l27.927272 16.290909c9.309091 4.654545 13.963636 13.963636 16.290909 20.945455 2.327273 9.309091 0 18.618182-4.654545 25.6 4.654545 2.327273-114.036364 179.2-114.036364 179.2z m90.763637-200.145455l-27.927273-16.290909h-2.327273s-2.327273 0-2.327272 2.327273l-118.69091 188.509091c-2.327273 4.654545-9.309091 6.981818-13.963636 6.981818h-2.327273c-32.581818-6.981818-65.163636 9.309091-79.127272 34.909091-16.290909 20.945455-16.290909 46.545455-9.309091 67.490909l30.254545-46.545455c4.654545-6.981818 13.963636-9.309091 20.945455-4.654545l55.854545 34.909091c6.981818 4.654545 9.309091 16.290909 4.654546 20.945454l-27.927273 46.545455c20.945455-2.327273 44.218182-16.290909 53.527273-34.909091 16.290909-25.6 16.290909-62.836364-4.654546-86.109091-4.654545-4.654545-4.654545-13.963636 0-16.290909l121.018182-186.181818v-11.636364h2.327273zM847.127273 807.563636H176.872727C116.363636 807.563636 69.818182 758.690909 69.818182 700.509091v-477.090909c0-58.181818 46.545455-107.054545 107.054545-107.054546h672.581818c58.181818 0 107.054545 46.545455 107.054546 107.054546V700.509091c0 58.181818-48.872727 107.054545-109.381818 107.054545z m48.872727-584.145454c0-25.6-20.945455-46.545455-46.545455-46.545455H179.2c-25.6 0-46.545455 20.945455-46.545455 46.545455V700.509091c0 25.6 20.945455 46.545455 46.545455 46.545454h672.581818c25.6 0 46.545455-20.945455 46.545455-46.545454v-477.090909z m-76.8-202.472727H651.636364v16.290909c0 16.290909-11.636364 25.6-25.6 25.6H381.672727c-16.290909 0-25.6-11.636364-25.6-25.6v-16.290909H188.509091c-16.290909 0-30.254545-13.963636-30.254546-30.254546 0-16.290909 13.963636-30.254545 30.254546-30.254545h630.690909c16.290909 0 30.254545 13.963636 30.254545 30.254545 0 18.618182-11.636364 30.254545-30.254545 30.254546z"  horiz-adv-x="1024" />

    
    <glyph glyph-name="gongneng" unicode="&#59208;" d="M416 352c35.3456 0 64-28.6544 64-64v-256c0-35.3456-28.6544-64-64-64H160c-35.3456 0-64 28.6544-64 64V288c0 35.3456 28.6544 64 64 64h256z m320 0c106.0384 0 192-85.9616 192-192s-85.9616-192-192-192-192 85.9616-192 192 85.9616 192 192 192z m-320-48H160c-8.8368 0-16-7.1632-16-16v-256c0-8.8368 7.1632-16 16-16h256c8.8368 0 16 7.1632 16 16V288c0 8.8368-7.1632 16-16 16z m320 0c-79.5296 0-144-64.4704-144-144s64.4704-144 144-144 144 64.4704 144 144-64.4704 144-144 144zM416 800c35.3456 0 64-28.6544 64-64v-256c0-35.3456-28.6544-64-64-64H160c-35.3456 0-64 28.6544-64 64V736c0 35.3456 28.6544 64 64 64h256z m448 0c35.3456 0 64-28.6544 64-64v-256c0-35.3456-28.6544-64-64-64H608c-35.3456 0-64 28.6544-64 64V736c0 35.3456 28.6544 64 64 64h256zM416 752H160c-8.8368 0-16-7.1632-16-16v-256c0-8.8368 7.1632-16 16-16h256c8.8368 0 16 7.1632 16 16V736c0 8.8368-7.1632 16-16 16z m448 0H608c-8.8368 0-16-7.1632-16-16v-256c0-8.8368 7.1632-16 16-16h256c8.8368 0 16 7.1632 16 16V736c0 8.8368-7.1632 16-16 16z"  horiz-adv-x="1024" />

    
    <glyph glyph-name="SAASfuben-" unicode="&#59124;" d="M512 100.01066666999998s291.8779264 280.3484448 291.8779264 441.45777813a291.8779264 291.8779264 0 1 1-584.05925973 0C220.4254816 380.66251839999995 512 100.01066666999998 512 100.01066666999998zM382.7484448 532.66962987A129.5549632 129.5549632 0 1 0 512 403.11466667a129.5549632 129.5549632 0 0 0-129.2515552 129.85837013zM603.02222187 72.09718507000002l-91.02222187-62.80533334-91.02222187 64.62577814c-55.5235552-13.0465184-93.1460736-37.31911147-93.14607466-64.62577814 0-41.26340693 82.83022187-74.94162987 184.77511146-74.94162986s184.77511147 33.67822187 184.77511147 74.94162986c-0.30340693 26.0930368-38.22933333 50.06222187-94.35970453 62.80533334z"  horiz-adv-x="1024" />

    
    <glyph glyph-name="zu" unicode="&#59118;" d="M512.51428584-66l-9.83571416 3.6C194.10714248 56.33571415999995 158.42857168 211.07142832 158.42857168 317.46428584V723.49285752l27.38571416-1.02857168c214.52142832-7.2 306 88.90714248 306.51428584 90L512 834.06428584l19.67142832-21.6a398.57142832 398.57142832 0 0 1 283.75714336-90.45c7.26428584 0 14.97857168 0 22.75714248 0.51428583l27.38571416 1.02857081v-406.15714248c0-106.39285752-35.67857168-261.12857168-344.25-379.86428584l-8.80714248-3.6zM212.17142832 668.97857168v-351.57857168c0-57.02142832 0-208.15714248 300.34285752-326.89285752 300.34285752 118.73571416 300.34285752 269.35714248 300.34285664 326.89285752V668.97857168a478.15714248 478.15714248 0 0 0-300.34285664 90 479.50714248 479.50714248 0 0 0-300.34285752-90zM285.07142832 355.00714247999997a495.64285752 495.64285752 0 0 1 51.42857168 121.82142919h-48.6v59.07857081h52.2V615.04285752h55.8v-79.13571504h43.39285752v-59.07857081h-43.39285752v-52.45714335c19.67142832-10.8 38.57142832-21.6 55.8-32.14285665l-27.9-50.91428583a244.28571416 244.28571416 0 0 1-27.9 20.57142832v-191.18571416h-55.8V356.74285752000003a610.71428584 610.71428584 0 0 0-40.82142832-84.79285752c-5.14285752 31.37142832-10.35 59.07857168-14.46428584 82.73571416z m192.27857168 36.51428585l54.25714248-15.42857081a1280.05714248 1280.05714248 0 0 0-56.8285708-151.13571504 279.83571416 279.83571416 0 0 1-53.74285752 21.6 1005.3 1005.3 0 0 1 56.31428584 144.96428584z m-36.19285752 87.36428583h292.05v-58.56428583H618.97142833v-193.24285665a50.01428584 50.01428584 0 0 0-13.43571417-37.02857168 57.47142832 57.47142832 0 0 0-38.57142832-14.4 1183.5 1183.5 0 0 0-68.72142832-1.54285752 1073.57142832 1073.57142832 0 0 1-12.40714336 62.67857168c16.00714248-1.54285752 30.47142832-2.05714248 42.87857168-2.05714248 17.55 0 26.35714248 8.22857167 26.35714248 24.17142832V420.83571416H440.83571416v57.85714336z m18.06428584 113.07857168h257.14285752v-58.56428584h-257.14285752z m225.90000001-204.04285752c19.28571416-45 37.22142832-93.02142832 54.77142919-143.42142832l-55.8-21.08571416a1970.03571416 1970.03571416 0 0 1-53.22857168 144.96428584l54.25714248 19.28571416z"  horiz-adv-x="1024" />

    
    <glyph glyph-name="jienengzonglan" unicode="&#59119;" d="M922.30130859 673.828125v-396.03515625a132.046875 132.046875 0 0 0-131.99414063-132.09960938H262.17240234A132.046875 132.046875 0 0 0 130.12552734 277.74023437000005V673.828125A132.046875 132.046875 0 0 0 262.17240234 805.875h528.13476562a132.046875 132.046875 0 0 0 131.99414063-132.046875z m-65.97070313 0a66.0234375 66.0234375 0 0 1-66.0234375 66.0234375H262.17240234a66.0234375 66.0234375 0 0 1-66.0234375-66.0234375v-396.03515625a66.0234375 66.0234375 0 0 1 66.0234375-66.07617188h528.13476562a66.0234375 66.0234375 0 0 1 66.0234375 66.02343751V673.828125zM262.17240234 79.72265625h528.13476562c21.99023438 0 33.01171875-10.96875 33.01171875-32.95898438 0-22.04296875-11.07421875-33.01171875-33.01171875-33.01171875H262.17240234c-22.04296875 0-33.01171875 10.96875-33.01171875 33.01171875 0 21.99023438 10.96875 32.95898438 33.01171875 32.95898438zM616.17826171 382.36523437000005a27.15820313 27.15820313 0 0 0-19.56445312-8.43749999 27.15820313 27.15820313 0 0 0-19.6171875 8.43749999L452.91263671 511.6171875 328.93412109 382.41796875a26.94726563 26.94726563 0 0 0-26.7890625-7.54101562 28.31835938 28.31835938 0 0 0-19.6171875 20.40820312 29.68945313 29.68945313 0 0 0 7.171875 27.94921875L433.29544921 572.7890625a27.15820313 27.15820313 0 0 0 19.6171875 8.49023438c7.3828125 0 14.44921875-3.05859375 19.6171875-8.43750001l124.03125-129.35742187 124.08398438 129.25195313a26.94726563 26.94726563 0 0 0 39.234375-1e-8 29.79492188 29.79492188 0 0 0 0-40.86914062L616.17826171 382.3125z"  horiz-adv-x="1024" />

    
    <glyph glyph-name="jienengfenxi" unicode="&#59122;" d="M825.18933333 761.77066667a505.08373333 505.08373333 0 0 1-112.74666666 62.79146666l-34.43093334-79.18293333a407.78453333 407.78453333 0 0 0 92.53866667-51.6032l54.63893333 67.99466667z m-250.5568 10.0608l11.27466667 85.16693333a531.05813333 531.05813333 0 0 1-130.4384 0l11.1008-84.99306667a431.72906667 431.72906667 0 0 0 108.06293333-0.17386666zM982.08 564.55253333a465.71306667 465.71306667 0 0 1-64.87253333 108.4096l-71.1168-51.94986666c21.68213333-27.23306667 39.63413333-57.24053333 53.16373333-88.9824l82.8256 32.52266666z m-785.7536 56.112l-71.29066667 51.94986667a472.33066667 472.33066667 0 0 1-64.69866666-108.75626667l82.73813333-32.0896c13.616 31.74186667 31.48266667 61.57653333 53.16373333 88.896h0.08746667z m167.81866667 124.4544l-34.43093334 79.18293334c-40.32853333-16.1312-78.22826667-37.2928-112.74666666-62.96426667l54.63893333-67.7344a413.92533333 413.92533333 0 0 0 92.53866667 51.51573333z m651.152-302.2464c2.6016-19.5136 3.81653333-39.20106667 3.90293333-58.88853333 0-263.392-222.89066667-477.00266667-497.8176-477.00266667-274.84053333 0-497.7312 213.61066667-497.7312 477.00266667 0 19.68746667 1.21386667 39.37493333 3.72906667 58.88853333l88.8096-10.75413333c-2.08106667-15.9584-3.20853333-32.0896-3.296-48.2208 0-216.12586667 182.8224-391.2288 408.31466666-391.2288s408.31466667 175.1904 408.31466667 391.2288c0 16.1312-1.04106667 32.2624-3.03573333 48.2208l88.8096 10.75413333zM521.29493333 59.62239999999997c-186.89813333 0-338.32533333 145.18293333-338.32533333 324.36266667h676.73706667c0.00106667-179.17973333-151.51253333-324.36266667-338.41173334-324.36266667z"  horiz-adv-x="1024" />

    
    <glyph glyph-name="yuedujienengtongji" unicode="&#59123;" d="M731.43113926 540.6026833000001c-14.80525576-401.6120502-393.81980977-504.00208388-393.81980977-504.00208389 310.91037627 282.2349331 327.11823545 534.54766464 327.27408048 534.54766465-0.15584502 0 37.01313984 204.54630029-6.38963702 246.85816289-44.25992315 43.63654395-87.6627-15.89617002-87.6627-15.89616914 44.10407813-15.27279082 77.14317568-118.83165997 48.93526758-210.5463252-87.89646709 24.62347881-222.39052998 38.64951035-329.61175313-37.55859696-192.15663838-152.57205967-24.93516797-383.7678205-129.9745626-603.74275577 575.53484678-90.85751807 685.0937417 228.62432197 685.09374083 228.62432197 68.4158669 182.02672617-71.53276289 324.00133945-113.92254844 361.71578145z m-1e-8 0"  horiz-adv-x="1024" />

    
    <glyph glyph-name="dianjiadingyi" unicode="&#59115;" d="M512-36.352c-227.84 0-413.696 185.344-413.696 413.696 0 141.312 71.168 271.36 190.464 348.16l31.744-49.664c-102.4-65.536-163.328-177.152-163.328-298.496 0-195.584 159.232-354.816 354.816-354.816 195.584 0 354.304 159.232 354.304 354.816 0 117.76-58.368 227.84-156.16 293.888l32.768 48.64c114.176-77.312 182.272-205.312 182.272-343.04 0.512-227.84-185.344-413.184-413.184-413.184zM301.568 698.368m-29.696 0a29.696 29.696 0 1 1 59.392 0 29.696 29.696 0 1 1-59.392 0ZM723.968 697.856m-29.696 0a29.696 29.696 0 1 1 59.392 0 29.696 29.696 0 1 1-59.392 0ZM453.12 739.84l174.08 20.48-99.84-286.72 163.84-5.12-309.76-363.52 107.52 268.8-140.8 2.56z"  horiz-adv-x="1024" />

    
    <glyph glyph-name="chunshui" unicode="&#59116;" d="M487.297744 817.890552c35.909761-37.167746 92.862184-99.152111 149.471521-174.28814 119.394237-158.048693 182.407862-300.429752 182.407863-411.475541 0-44.143846-8.577172-85.428635-25.502793-122.710744-16.239446-35.566674-39.798079-67.24503-69.189189-93.090909-60.726379-53.521555-144.897029-83.027027-237.187402-83.027027s-176.461023 29.39111-237.187402 83.027027c-29.39111 25.731517-52.949743 57.409873-69.189189 93.090909C164.109895 146.69823499999995 155.532723 187.983024 155.532723 232.12687100000005c0 110.58834 62.784901 252.51195 181.492964 410.103194 56.494974 75.593478 114.019209 138.264016 150.272057 175.660487m0 78.109448S100.067009 533.357159 100.067009 232.24123299999997c0-213.857494 173.373241-354.065669 387.230735-354.065669s387.230735 140.208175 387.230735 354.065669C874.528479 533.357159 487.297744 896 487.297744 896zM340.570918 130.344427c-15.210185 38.082645-21.843199 79.71052-19.670315 123.854367 2.401608 50.662497 18.297967 107.157472 46.888542 168.112575l-59.468394 2.744695c-24.130444-55.923163-40.026804-112.989949-42.657137-168.3413-2.744695-57.29551 7.319187-110.016529 27.561313-156.447621l63.24235-2.97342c-6.061202 10.635694-11.43623 21.614474-15.896359 33.050704z"  horiz-adv-x="1024" />

    
    <glyph glyph-name="nengyuanfenxi" unicode="&#59117;" d="M662.756 99.556H378.31v-142.223h-256v-56.889h796.445v56.89h-256z m261.688 768H116.622c-42.666 0-79.644-34.134-79.644-79.645V261.69c0-42.667 36.978-79.645 79.644-79.645H921.6c45.511 0 79.644 34.134 79.644 79.645V787.91c2.845 45.511-34.133 79.645-76.8 79.645z m25.6-603.023a25.494 25.494 0 0 0-25.6-25.6H116.622a25.494 25.494 0 0 0-25.6 25.6V787.911a25.494 25.494 0 0 0 25.6 25.6H921.6a25.494 25.494 0 0 0 25.6-25.6v-523.378zM625.778 446.578c22.755 25.6 36.978 56.889 36.978 93.866h-56.89c0-48.355-36.977-85.333-85.333-85.333S435.2 492.09 435.2 540.444s36.978 85.334 85.333 85.334v56.889c-36.977 0-71.11-14.223-96.71-39.823L312.888 753.778h-153.6v-56.89h130.844l102.4-102.4c-8.533-17.066-11.377-36.977-11.377-54.044 0-79.644 62.577-142.222 142.222-142.222 22.755 0 42.666 5.69 59.733 14.222L696.89 298.667h176.355v56.889H722.49l-96.711 91.022zM159.289 554.667H301.51v-56.89H159.29z m0-199.111h170.667v-56.89H159.289zM614.4 694.044c-5.689 2.845-11.378 2.845-14.222 2.845-31.29 0-56.89-25.6-56.89-56.889s25.6-56.889 56.89-56.889 56.889 25.6 56.889 56.889c0 5.689 0 8.533-2.845 14.222l42.667 42.667H870.4v56.889H674.133L614.4 694.044z"  horiz-adv-x="1024" />

    
    <glyph glyph-name="zhuangzhifenxi" unicode="&#59113;" d="M722.93651123 637.65181558v26.36714631l-74.61902363-74.61902363L722.93651123 515.83559967v13.18357316a158.20287781 158.20287781 0 0 0 0-297.94875321V120.32840514999998a263.67146302 263.67146302 0 0 1 0 516.79606751zM617.46792602 230.27940480999996a158.20287781 158.20287781 0 0 0 0 297.94875403V637.65181558a259.71639148 259.71639148 0 0 1-105.4685852-47.72453438 263.67146302 263.67146302 0 0 1 0-421.87434165A259.71639148 259.71639148 0 0 1 617.46792602 120.32840514999998v-23.46676062L692.08695047 173.06269776 617.46792602 246.36336446999996zM459.26504822 67.59411254999998H248.32787781a52.7342926 52.7342926 0 0 0-52.7342926 52.7342926v81.47448166h215.94692861l-52.7342926 105.46858603H195.59358521v143.43727589h163.21263601l52.7342926 105.4685852H195.59358521V647.67133117a52.7342926 52.7342926 0 0 0 52.7342926 52.73429261h210.93717041a52.7342926 52.7342926 0 0 0 52.7342926-47.7245344 318.25145627 318.25145627 0 0 0 100.19515594 37.44134775A158.20287781 158.20287781 0 0 1 459.26504822 805.87420898H248.32787781a158.20287781 158.20287781 0 0 1-158.20287781-158.2028778v-527.34292603a158.20287781 158.20287781 0 0 1 158.20287781-158.20287781h210.93717041a158.20287781 158.20287781 0 0 1 149.50171994 105.46858521 316.40575562 316.40575562 0 0 0-98.87679904 37.96869068A52.7342926 52.7342926 0 0 0 459.26504822 67.59411254999998z"  horiz-adv-x="1024" />

    
    <glyph glyph-name="jiqiren" unicode="&#59114;" d="M540.125 663.23958333V574.08333333H849.5v-618.75H174.5V574.08333333h309.375V663.23958333a84.375 84.375 0 1 0 56.25 0zM537.3125 489.70833333H258.875v-450h506.25v450H537.3125zM512 714.70833333a28.125 28.125 0 1 1 0 56.25 28.125 28.125 0 0 1 0-56.25zM399.5 236.58333332999996a56.25 56.25 0 1 0 0 112.5 56.25 56.25 0 1 0 0-112.5z m225 0a56.25 56.25 0 1 0 0 112.5 56.25 56.25 0 1 0 0-112.5zM62 405.33333333h84.375v-281.25H62V405.33333333z m407.8125 281.25h84.375v-112.5h-84.375V686.58333333z m407.8125-281.25H962v-281.25h-84.375V405.33333333z"  horiz-adv-x="1024" />

    
    <glyph glyph-name="tubiaozhizuomoban-" unicode="&#59112;" d="M791.3-128H232.7C104.7-128 0-23.3 0 104.7V663.2C0 791.3 104.7 896 232.7 896h558.5c128 0 232.7-104.7 232.7-232.7v-558.5c0.1-128.1-104.6-232.8-232.6-232.8zM712 322.4c-8.6 0-16.4-5.4-18.9-13.5C669.3 233.5 595 178.7 512 178.7s-157.3 54.8-181.1 130.2c-2.6 8.2-10.4 13.5-18.9 13.5-13.4 0-23.4-13-19.3-25.8 27.1-85.8 106.5-149.7 198.8-158v-42H471c-11.3 0-20.5-9.2-20.5-20.5 0-5.4 2.2-10.7 6-14.5 3.8-3.9 9.1-6 14.5-6h82.1c7.4-0.2 14.4 3.7 18.2 10.1a20.4 20.4 0 0 1 0 20.8c-3.8 6.4-10.7 10.3-18.2 10.1h-20.5v42c92.3 8.3 171.7 72.3 198.8 158 4 12.8-6 25.8-19.4 25.8zM512 219.8c79.4 0 143.7 64.3 143.7 143.7V568.7c0 79.3-64.3 143.7-143.7 143.7s-143.7-64.3-143.7-143.7v-205.3c0-79.3 64.3-143.6 143.7-143.6z"  horiz-adv-x="1024" />

    
    <glyph glyph-name="player" unicode="&#60183;" d="M753.265 790.888c12.57-12.546 12.696-32.81 0.377-45.512l-0.377-0.383L680.133 672H816c70.692 0 128-57.308 128-128v-448c0-70.692-57.308-128-128-128H208c-70.692 0-128 57.308-128 128V544c0 70.692 57.308 128 128 128h136.079l-73.131 72.993c-12.698 12.674-12.698 33.222 0 45.895 12.697 12.674 33.284 12.674 45.982 0L436.044 672h152.124l119.115 118.888c12.697 12.674 33.284 12.674 45.982 0zM816 608H208c-34.993 0-63.426-28.084-63.991-62.942L144 544v-448c0-34.993 28.084-63.426 62.942-63.991L208 32h608c34.993 0 63.426 28.084 63.991 62.942L880 96V544c0 35.346-28.654 64-64 64zM439 486c11.806 0 23.435-3.306 34-10l173-107c29.687-18.156 39.009-57.616 20-88-4.87-8.358-12.176-15.61-21-21L472 155c-30.18-18.052-69.491-8.359-88 22-5.808 9.903-9 21.366-9 33V422c0 35.327 28.628 64 64 64z m1.196-74.146a8 8 0 0 1-1.196-4.208v-183.432a8 8 0 0 1 12.15-6.84l149.688 90.851a8 8 0 0 1 0.057 13.643L451.208 414.45a8 8 0 0 1-11.012-2.595z"  horiz-adv-x="1024" />

    
    <glyph glyph-name="tubiao-shunxu" unicode="&#59105;" d="M1326.25769258-66H563.12692315A51.12692315 51.12692315 0 0 0 512-14.873076849999961v1.59230742A51.12692315 51.12692315 0 0 0 563.12692315 37.84615370999995h763.13076943A51.12692315 51.12692315 0 0 0 1377.38461573-13.280769429999964v-1.59230742A51.12692315 51.12692315 0 0 0 1326.25769258-66z m0 415.38461573H563.12692315A51.12692315 51.12692315 0 0 0 512 400.51153886v1.59230742A51.12692315 51.12692315 0 0 0 563.12692315 453.23076943h763.13076943A51.12692315 51.12692315 0 0 0 1377.38461573 402.10384628v-1.59230741A51.12692315 51.12692315 0 0 0 1326.25769258 349.38461572999995z m0 380.76923056H563.12692315A51.12692315 51.12692315 0 0 0 512 781.28076943v1.59230742A51.12692315 51.12692315 0 0 0 563.12692315 834h763.13076943A51.12692315 51.12692315 0 0 0 1377.38461573 782.87307685v-1.59230742A51.12692315 51.12692315 0 0 0 1326.25769258 730.15384629zM287-66c-1.52307685 0-2.80384629 0.72692315-4.29230742 0.86538428a21.46153887 21.46153887 0 0 0-18.55384629 4.08461572l-2.90769258 2.90769258a50.57307685 50.57307685 0 0 0-18.03461484 17.93076856L67.15769258 135.11538427000005a58.29230742 58.29230742 0 0 0 69.9576917 70.58076945L235.07692315 107.94230742000002V782.07692315A51.92307685 51.92307685 0 0 0 287 834 51.92307685 51.92307685 0 0 0 338.92307685 782.07692315v-796.1538463A51.92307685 51.92307685 0 0 0 287-66z"  horiz-adv-x="1496" />

    
    <glyph glyph-name="shebeidianjianjihuaduixianshuai" unicode="&#59106;" d="M949.87040547 53.02843734999999c-2.64508951-52.08090711-69.86685552-40.13239774-105.43875322-40.13239774H181.97346453c-28.27509824 0-40.40602734 23.80580887-40.40602816 48.34129752V660.3045791c0 33.74769781-9.85067908 94.85839435 41.40933756 94.85839352h720.10290426c48.61492713 0 46.6995174-40.95328738 46.69951739-76.06913488v-626.06540039c0-32.37954813 50.34791711-32.37954813 50.3479163 0V617.16225156c0 36.48399802 4.28686963 75.24824524-1.27693982 111.18498321A91.20999381 91.20999381 0 0 1 908.36985803 805.60209961H238.06761084C191.73293374 805.60209961 141.29380677 811.43953949 109.55272855 769.11810242c-26.08605808-34.75100803-18.2419986-86.46707483-18.24199859-127.69399265v-586.02421252A92.94298379 92.94298379 0 0 1 155.7049859-33.52984733999995a134.16990161 134.16990161 0 0 1 45.60499732-3.83081947h705.32688482a92.39572375 92.39572375 0 0 1 93.58145454 90.29789428c1.64178012 32.28833826-48.79734686 32.19712756-50.34791712 0zM116.39347864 559.33511527H974.86194428c32.470758 0 32.470758 50.16549655 0 50.16549655H116.39347864c-32.470758 0-32.470758-50.16549655 0-50.16549655zM510.23823352 217.29763705000005l120.03235208-119.57630273a20.33982889 20.33982889 0 0 1 28.36630811 0L866.32205056 304.49439166c18.2419986 18.2419986-10.03309964 46.51709683-28.3663081 28.27509824L630.2705856 125.99643256000002h28.36630811L538.60454162 245.57273528999997c-18.2419986 18.2419986-46.6995174-10.03309964-28.3663081-28.27509824zM232.777431 482.53629978m25.08274869 0l371.771936 0q25.08274868 0 25.08274869-25.08274787l0 0q0-25.08274868-25.08274869-25.08274868l-371.771936 0q-25.08274868 0-25.08274869 25.08274868l0 0q0 25.08274868 25.08274869 25.08274787ZM232.777431 338.60692896m25.08274869 0l202.7598165 0q25.08274868 0 25.08274868-25.08274786l0 0q0-25.08274868-25.08274868-25.0827487l-202.7598165 0q-25.08274868 0-25.08274869 25.0827487l0 0q0 25.08274868 25.08274869 25.08274786ZM232.777431 181.17847933999997m25.08274869 0l88.74732403 0q25.08274868 0 25.08274869-25.08274868l0 0q0-25.08274868-25.08274869-25.08274787l-88.74732403 0q-25.08274868 0-25.08274869 25.08274787l0 0q0 25.08274868 25.08274869 25.08274868Z"  horiz-adv-x="1107" />

    
    <glyph glyph-name="lujingguihua" unicode="&#59107;" d="M274.382 451.5l-54.9 57.492L476.594 778.488C545.642 850.848 656.72 851.1 724.76 779.8199999999999c68.022-71.298 67.77-187.74-1.278-260.118l-276.48-289.818-54.9 57.528 276.516 289.8c37.62 39.708 37.422 103.86-0.45 143.298-37.62 39.69-98.82 39.906-136.71 0.468L274.346 451.5h0.036zM761.696 269.70000000000005l54.9-57.528L597.5-17.436000000000035c-62.514-65.52-167.184-57.312-234.36 13.104-67.212 70.434-75.06 180.144-12.51 245.664L653.66 558.96l54.864-57.474-303.048-317.664c-28.782-30.168-24.642-88.146 14.22-128.862 38.844-40.734 94.158-45.072 122.94-14.886L761.714 269.70000000000005h-0.018zM100.772 327.03c-50.346 52.776-50.166 139.086 1.116 192.87 51.3 53.784 133.686 53.964 183.996 1.152 50.364-52.74 50.22-139.086-1.098-192.87-51.3-53.748-133.686-53.928-184.014-1.152z m56.556 59.274c20.358-21.33 52.866-21.24 72.576-0.576 19.728 20.646 19.8 54.72-0.54 76.05-20.394 21.348-52.884 21.276-72.612 0.612-19.692-20.646-19.782-54.738 0.576-76.05v-0.036zM951.848 437.226l-40.68-269.424-73.674 137.52-134.532 52.2z"  horiz-adv-x="1024" />

    
    <glyph glyph-name="icon_shijianduibi" unicode="&#59108;" d="M512-37.875c-23.30015625 0-42.1875 18.88734375-42.1875 42.1875V763.6875c0 23.30015625 18.88734375 42.1875 42.1875 42.1875s42.1875-18.88734375 42.1875-42.1875v-757.5609375A42.1875 42.1875 0 0 0 512-37.875zM863.3375 73.16250000000002l-333.703125 250.6359375a43.790625 43.790625 0 0 0 0 70.1578125l333.703125 250.6359375c13.2046875 10.125 31.0921875 11.8125 45.984375 4.3875 15.103125-7.425 24.5953125-22.7390625 24.553125-39.4875v-506.25a43.875 43.875 0 0 0-24.553125-39.4453125 42.3984375 42.3984375 0 0 0-19.5328125 0.6328125 44.8453125 44.8453125 0 0 0-26.4515625 8.7328125zM596.375 358.265625l253.125-189.84375v379.6875l-253.125-189.84375zM134.1265625 62.94890625000005a43.605 43.605 0 0 0-31.303125 12.57609375 42.8203125 42.8203125 0 0 0-12.65625 31.05V609.7453125a43.621875 43.621875 0 0 0 24.46875 39.2765625 44.9296875 44.9296875 0 0 0 46.5328125-4.3453125l333.2390625-249.4125a43.5375 43.5375 0 0 0 0-69.8203125L161.16875 76.03125c-7.340625-7.171875-16.8328125-11.728125-27-13.08234375h-0.0421875zM174.5 547.940625v-379.6875l253.125 189.4640625-253.125 190.2234375z"  horiz-adv-x="1024" />

    
    <glyph glyph-name="jinru" unicode="&#59109;" d="M829.08849-11.965317000000027H274.21404c-65.68001 0-118.832165 53.152156-118.832166 118.832166V265.471909h79.30253V213.65767900000003c0-80.883715 65.43675-146.320466 146.320466-146.320466h341.41442c80.762086 0 146.320466 65.55838 146.320465 146.320466V555.072099c0 80.883715-65.55838 146.320466-146.320465 146.320465H381.00487c-80.883715 0-146.320466-65.55838-146.320466-146.320465v-12.162965H155.260245v118.832165c0 65.68001 53.152156 118.832165 118.832165 118.832166H828.966861c65.68001 0 118.953795-53.152156 118.953795-118.832166v-554.752821c0-65.68001-53.273785-118.953795-118.832166-118.953795zM472.348735 582.438769l237.78596-198.134695L472.348735 225.82064400000002v118.832165H76.079344v118.832165h396.269391v118.953795z m0 0"  horiz-adv-x="1024" />

    
    <glyph glyph-name="chuqu" unicode="&#59110;" d="M214.4-12.799999999999955c-65.6 0-118.4 52.8-118.4 118.4v555.2c0 65.6 52.8 118.4 118.4 118.4h427.2c65.6 0 118.4-52.8 118.4-118.4v-118.4h-80v12.8c0 81.6-65.6 145.6-145.6 145.6h-212.8c-80 0-145.6-65.6-145.6-145.6v-340.8c0-81.6 65.6-145.6 145.6-145.6h212.8c81.6 0 145.6 65.6 145.6 145.6v51.2h80v-158.4c0-65.6-52.8-118.4-118.4-118.4l-427.2-1.6zM785.6 464v118.4l238.4-198.4-238.4-158.4v118.4h-396.8V462.4h396.8"  horiz-adv-x="1024" />

    
    <glyph glyph-name="zhiliucheliang" unicode="&#59111;" d="M1150.23336141 487.98078933c-179.48395627 0-325.05706133-145.57310507-325.05706133-325.05706133S970.74940408-162.1333333299999 1150.23336141-162.1333333299999s325.05706133 145.57310507 325.05706027 325.05706133S1329.71731768 487.98078933 1150.23336141 487.98078933z m-160.936032-124.7769472l52.27142293-65.57347093-28.47762133-22.85703787-52.64612907 66.88493974 28.85232747 21.54556906z m-11.8032256-111.10019413l59.20347627-68.9458208-29.22703254-23.41909653-58.45406506 69.32052586 28.47762133 23.04439147z m8.8055808-289.64738773l-33.91085227 14.23881173 58.07936 142.7628128 34.28555734-13.8641056-58.45406507-143.13751893z m343.23028053 55.45642133c0-21.7329216-15.36292693-30.91320747-35.03496853-29.22703253l-45.1520192 3.74705493V23.345911470000033l37.0958496-2.99764374c3.74705493-0.37470507 5.43323093 1.31146987 5.43322987 5.0585248v66.88493974c0 2.9976448-2.43558613 5.43323093-5.0585248 5.43323093h-64.63670614v-135.643408h-37.0958496v135.643408H1119.88221154c-2.43558613 0-5.0585248-2.43558613-5.0585248-5.43323093v-103.04402454h-37.6579072v113.91048534c0 15.36292693 7.49411093 23.41909653 21.7329216 23.41909653h85.99492267V175.10165759999995h37.0958496v-48.71172053h83.55933653c15.36292693 0 23.79380267-8.43087467 23.7938016-23.41909654v-85.05815893z m20.04674667 126.8378272h-37.65790827v42.1543744c0 3.37234987-2.43558613 6.18264107-6.18264106 6.18264107H1101.14693474c-3.74705493 0-6.18264107-2.9976448-6.18264213-6.18264107v-42.1543744h-37.6579072v57.14259627c0 11.24116587 9.18028587 20.42145173 20.79615787 20.42145173h250.49065706c11.615872 0 20.79615787-9.18028587 20.79615787-20.42145173v-57.14259627z m1.68617493 141.63869653h-40.46819946v-40.84290453h-37.6579072v40.84290453h-50.95995414v-40.84290453h-37.0958496v40.84290453h-50.0231904v-40.84290453H1097.39987874v40.84290453h-48.524368l11.615872 28.85232747H1097.39987874v48.89907307h37.6579072v-48.89907307h50.0231904v48.89907307h37.0958496v-48.89907307h50.95995414v48.89907307h37.6579072v-48.89907307h40.46819946v-28.85232747zM765.97282381 167.42019413000003c0 158.875152 99.48432213 294.51855893 239.43684373 348.1014528H431.36077048c-44.9646656 0-98.92226453 35.4096736-102.48196694 80.3743392l15.362928 61.45170987 41.4049632 110.1634304 0.5620576 2.62293867c4.12176107 22.29498027 13.30204693 26.22938773 26.9788 43.4658432h648.24059414c13.676752-17.61116053 22.29498027-22.10762773 26.0420352-43.27849067l42.1543744-112.9737216 15.36292693-61.45170987c-1.68617493-22.4823328-16.11233813-42.52907947-35.59702613-57.1425952 9.55499093 0.7494112 19.29733547 1.12411627 29.03967893 1.12411627 72.5055232 0 139.9525216-20.60880533 197.2824704-56.39318507-3.37234987 10.67910827-7.68146347 20.60880533-12.55263573 30.35114987l46.2761344 7.868816c19.29733547 0 34.847616 15.55028053 34.847616 34.847616v30.16379627c0 19.29733547-15.55028053 34.847616-34.847616 34.847616h-125.15165227c-5.99528853 0-11.42851947-1.68617493-16.29969067-4.49646614l-56.39318506 169.92896427C1153.41835768 883.4824928 1085.40930168 930.13333333 1001.84996514 930.13333333H472.20367501C376.27905528 930.13333333 318.01234274 867.5575072 302.64941581 786.9958144l-56.5805376-170.49102293c-5.0585248 2.9976448-11.05381333 4.87117227-17.23645547 4.87117226h-125.15165226c-19.29733547 0-34.847616-15.55028053-34.84761494-34.847616v-30.16379626c0-19.29733547 15.55028053-34.847616 34.84761494-34.847616l47.40025173-8.0561696c-14.98822187-29.22703253-23.41909653-62.57582613-23.41909653-101.5452032l-17.61116054-200.46746667c0-5.807936 0.37470507-11.80322453 1.12411627-17.61116053-0.7494112-3.5597024-1.12411627-7.49411093-1.12411627-11.24116694v-241.12301866c0-34.28555733 27.91556267-62.20112107 62.20112107-62.20112h94.8005024c34.28555733 0 62.20112107 27.91556267 62.20112107 62.20112v77.564048h467.44516906c-19.85939413 45.33937067-30.72585493 95.54991467-30.72585493 148.38339626zM373.46876408 133.13463679999995c-52.0840704 0-94.05109227 42.1543744-94.05109227 94.05109227 0 52.0840704 42.1543744 94.05109227 94.05109227 94.05109226 52.0840704 0 94.05109227-42.1543744 94.05109226-94.05109226 0-51.89671787-42.1543744-94.05109227-94.05109226-94.05109227z"  horiz-adv-x="1537" />

    
    <glyph glyph-name="yinle" unicode="&#59104;" d="M603.8 204.3c28.1 8.3 56.2 11.3 81.9 9.3V509.2l-141.2-42.7c-2.6 11.2-7 21.7-12.3 31.7l153.6 97.1v65.6c-64.6 76.8-161.4 125.7-269.6 125.7C221.7 786.6 64 628.9 64 434.4c0-194.6 157.7-352.2 352.2-352.2 20.8 0 41.1 1.9 60.9 5.4 1.4 11.3 5.2 22.7 11.2 33.9 19.7 36.2 62.9 67.2 115.5 82.8z m350.3 252.5c15.5-82.5-1.9-142.5-25.1-183.3-10-17.5-20.9-31.4-30.9-42-17-18.2-31-26.7-31-26.7s7.8 15.1 14.2 38.3c5.3 19 9.7 43.4 8.2 69.6-1.5 26.3-8.9 54.3-27.3 80.2-22.2 31.3-48.3 49.5-70.7 59.8-0.6 0.3-1.2 0.5-1.8 0.8-7.4 3.3-14.4 5.8-20.7 7.5v-352c0.4-4.1 0.3-8.4-0.2-12.9 0.1 0 0.1 0.1 0.2 0.1 0 0-0.1-0.1-0.2-0.1-2.4-22.6-16-48.1-38.2-69.3-16.7-15.9-38.1-29.3-63.2-37.2-35.9-11.1-71.6-10.8-99.9-1.2-27.3 9.1-47.8 26.8-55.3 50.9-5.9 19-2.8 39.2 7.2 58.2 15.9 30.2 49.4 57.2 92.7 70.6 14.6 4.5 29.2 7.1 43.4 8 10.4 0.7 20.5 0.4 30.1-0.8l2.7-0.3c7.5-1 14.7-2.7 21.5-4.7 5.4-1.7 10.5-3.7 15.3-6 0.5 0.4 1 0.6 1.5 0.9V677.7s15.8-3 39-11.5c1.1 3.7 1.8-0.7 1.8-0.7 58.7-21.9 162.2-78.2 186.7-208.7zM681.8 211.6c1.5-0.1 2.9-0.3 4.3-0.4-1.4-1.7-2.8-3.5-4.3-5.2v5.6zM208.4 647.8c40 40 88.6 65.9 139.8 78.3l41.3-159.7c-23.6-5.4-46.1-16.8-64.4-35.2-5.4-5.3-9.9-11.2-14.1-17.3l-133.7 96.6c9.2 13 19.4 25.6 31.1 37.3z m20.9-442.2c-38.4 31.2-68.8 71.9-87.8 118.5l152.8 62.1c8.6-21 22.7-39 40.2-52.9-33.9-42.1-72.7-89.7-105.2-127.7zM416.5 348c-48.6 0-88 39.4-88 88s39.4 87.9 88 87.9 88-39.3 88-87.9c0-48.6-39.4-88-88-88z"  horiz-adv-x="1024" />

    
    <glyph glyph-name="zhuizong" unicode="&#59103;" d="M910.222222 772.209778v-758.215111c0-36.920889-28.216889-66.901333-62.919111-66.901334H176.696889c-34.702222 0-62.919111 29.980444-62.919111 66.901334V772.209778C113.777778 809.130667 141.994667 839.111111 176.696889 839.111111h670.606222c34.702222-0.113778 62.919111-29.980444 62.919111-66.901333zM296.675556 431.843556c-21.048889 0-38.115556-17.351111-38.115556-38.798223 0-21.390222 17.066667-38.798222 38.115556-38.798222h141.027555c13.653333 0 26.168889 7.395556 32.995556 19.399111a39.424 39.424 0 0 1 0 38.798222 38.001778 38.001778 0 0 1-32.995556 19.399112H296.675556z m0 213.333333a37.944889 37.944889 0 0 1-34.019556-19.057778 39.424 39.424 0 0 1 0-39.537778 37.944889 37.944889 0 0 1 34.019556-19.000889h430.648888a37.944889 37.944889 0 0 1 34.019556 19.000889 39.424 39.424 0 0 1 0 39.537778 37.944889 37.944889 0 0 1-34.019556 19.000889h-430.648888z m412.273777-596.195556l75.036445 74.410667c29.809778 29.240889 46.648889 69.575111 46.648889 111.729778 0 42.097778-16.839111 82.488889-46.648889 111.729778a160.426667 160.426667 0 0 1-225.28 0A156.501333 156.501333 0 0 1 512 235.12177799999995c0-42.154667 16.782222-82.488889 46.648889-111.729778l75.036444-74.467556c28.615111-27.306667 46.364444-28.103111 75.207111 0z m-93.923555 239.217778c19.911111 21.390222 49.664 30.037333 77.710222 22.698667 27.989333-7.395556 49.891556-29.696 57.116444-58.197334a82.090667 82.090667 0 0 0-22.186666-79.075555 78.620444 78.620444 0 0 0-111.217778 1.365333 82.147556 82.147556 0 0 0-1.422222 113.208889z"  horiz-adv-x="1024" />

    
    <glyph glyph-name="arrows-left" unicode="&#59102;" d="M600.04243512 349.75875293c4.87353164 4.76106592 8.62240253 10.45934912 11.05916836 16.7199627 0.86224042 2.13685664 0.86224042 4.49864473 1.46205879 6.74796708 0.82475156 3.59891542 1.9494123 6.93541055 1.94941318 10.57181574 0 3.6364043-1.12466162 6.93541055-1.94941318 10.45934911-0.59981924 2.24932237-0.59981924 4.61111133-1.49954766 6.74796707a47.91056661 47.91056661 0 0 1-11.02167949 16.86991818L186.54200192 819.52973409A49.26016055 49.26016055 0 0 1 118.35004429 820.50444023 45.9611543 45.9611543 0 0 1 119.32475133 754.2618958L500.54740787 383.87347529 119.24977359 13.48505479000005a45.9611543 45.9611543 0 0 1-0.93721815-66.24254444c19.11924052-17.99457891 49.59755859-17.61969199 68.15446873 0.93721817L600.04243512 349.75875293zM445.16981042 754.2618958L826.42995583 383.87347529l-381.26014541-370.46339736c-19.11924052-17.99457891-19.53161631-47.61065742-1.01219502-66.16756759 9.14724404-8.62240253 21.48102862-13.42095733 34.30216582-13.23351297 12.74616035 0.18744346 24.96747833 5.28590742 33.85230206 14.245708l413.57541093 401.72897989c4.83604277 4.76106592 8.58491367 10.42186026 11.02167949 16.68247383 1.01219502 2.06187891 1.01219502 4.38617901 1.49954855 6.74796708 0.86224042 3.48644971 1.98690117 6.82294482 1.98690116 10.45934912 0 3.6364043-1.12466162 6.89792167-1.94941318 10.42186114-0.59981924 2.24932237-0.59981924 4.61111133-1.49954767 6.74796709a47.34823623 47.34823623 0 0 1-10.94670263 16.86991728L512.46203876 819.60471182a49.3351374 49.3351374 0 0 1-68.19195764 0.86224041 46.07362002 46.07362002 0 0 1 0.8997293-66.24254442z"  horiz-adv-x="1024" />

    
    <glyph glyph-name="liebiao" unicode="&#59101;" d="M267.80558222-27.16330665999999a36.39978667 36.39978667 0 0 0 0 51.48216888L630.41991111 386.94229334 267.78737778 749.55662222a36.40888889 36.40888889 0 0 0 51.49127111 51.49127112l414.1056-414.1056-414.1056-414.1056a36.39068445 36.39068445 0 0 0-51.49127111 0z"  horiz-adv-x="1024" />

    
    <glyph glyph-name="yucexingweihu" unicode="&#59097;" d="M76.94324938 640.83639309c8.28504494 20.71261235 33.14017975 28.99765728 53.8527921 20.71261234 20.71261235-8.28504494 28.99765728-33.14017975 20.71261234-53.8527921-45.56774717-107.70558419-20.71261235-236.12378075 62.13783704-318.97423013s211.26864592-107.70558419 318.97423012-62.13783703c20.71261235 8.28504494 45.56774717 0 53.8527921-20.71261234 8.28504494-20.71261235 0-45.56774717-20.71261235-53.8527921-136.70324148-57.99531457-298.26161778-28.99765728-405.96720197 78.70792691-111.84810667 107.70558419-140.84576395 273.40648297-82.85044938 410.10972445z m687.65872986-289.97657284c-8.28504494-20.71261235-33.14017975-28.99765728-53.85279208-20.71261235-20.71261235 8.28504494-28.99765728 33.14017975-20.71261236 53.8527921 45.56774717 107.70558419 20.71261235 231.98125827-62.13783703 318.97423013-82.85044939 82.85044939-211.26864592 107.70558419-318.97423013 62.13783704-20.71261235-12.42756741-45.56774717 0-53.85279209 20.71261233-8.28504494 20.71261235 0 45.56774717 20.71261235 53.85279211 136.70324148 57.99531457 302.40414025 28.99765728 410.10972445-78.70792692 107.70558419-111.84810667 136.70324148-273.40648297 78.70792689-410.10972444zM698.32161975 334.28973037000003c-16.57008987 16.57008987-16.57008987 41.42522469 0 57.99531457 16.57008987 16.57008987 41.42522469 16.57008987 57.99531456 0l190.55603359-190.55603358c66.2803595-66.2803595 66.2803595-169.84342124 0-236.12378075s-169.84342124-66.2803595-236.12378074 0l-190.5560336 190.55603358c-16.57008987 16.57008987-16.57008987 41.42522469 0 57.99531457s41.42522469 16.57008987 57.99531459 0l190.55603357-190.55603358c33.14017975-33.14017975 82.85044939-33.14017975 115.99062914 0 33.14017975 33.14017975 33.14017975 82.85044939 0 115.99062913l-186.41351111 194.69855606zM263.3567605 508.27567408c0 24.85513482 16.57008987 41.42522469 41.42522467 41.42522468s41.42522469-16.57008987 41.42522469-41.42522468c0-45.56774717 37.28270222-82.85044939 82.85044939-82.85044939s82.85044939 37.28270222 82.85044938 82.85044939-37.28270222 82.85044939-82.85044938 82.85044939c-24.85513482 0-41.42522469 16.57008987-41.42522468 41.42522468s16.57008987 41.42522469 41.42522468 41.42522468c91.13549431 0 165.70089876-74.56540445 165.70089877-165.70089875s-74.56540445-165.70089876-165.70089877-165.70089877-165.70089876 74.56540445-165.70089875 165.70089877z"  horiz-adv-x="1024" />

    
    <glyph glyph-name="shebeijiankong" unicode="&#59098;" d="M72.97560987 823.02439013m175.60975605 0l526.82926816 0q175.60975606 0 175.60975605-175.60975605l0-526.82926816q0-175.60975606-175.60975605-175.60975605l-526.82926816 0q-175.60975606 0-175.60975605 175.60975605l0 526.82926816q0 175.60975606 175.60975605 175.60975605ZM775.41463408-66h-526.82926816A186.80487803 186.80487803 0 0 0 62 120.58536591999996v526.82926816A186.80487803 186.80487803 0 0 0 248.58536592 834h526.82926816A186.80487803 186.80487803 0 0 0 962 647.41463408v-526.82926816a186.80487803 186.80487803 0 0 0-186.58536592-186.58536592zM248.58536592 812.04878028A164.80975605 164.80975605 0 0 1 83.95121972 647.41463408v-526.82926816A164.80975605 164.80975605 0 0 1 248.58536592-44.04878027999996h526.82926816a164.80975605 164.80975605 0 0 1 164.63414619 164.6341462v526.82926816A164.80975605 164.80975605 0 0 1 775.41463408 812.04878028zM650.29268252 186.43902421999996H373.70731748a30.73170761 30.73170761 0 0 1 0-61.46341435h276.58536504a30.73170761 30.73170761 0 0 1 0 61.46341435zM740.29268252 643.02439013H283.70731748a34.74878027 34.74878027 0 0 1-35.12195156-34.35365829v-326.41463408a34.74878027 34.74878027 0 0 1 35.12195156-34.35365831h456.58536504a34.74878027 34.74878027 0 0 1 35.12195156 34.35365831v326.41463408A34.74878027 34.74878027 0 0 1 740.29268252 643.02439013z m-59.26829239-240.3658538h-44.53902421l-43.02439014-59.94878027a34.90243945 34.90243945 0 0 0-60.80487802 3.27073183l-70.09024395 128.56829239-31.39024394-63.10975606a25.33170761 25.33170761 0 0 0-22.69756143-14.04878027h-56.21707266a25.33170761 25.33170761 0 1 0 0 50.66341435h40.54390225l38.63414619 77.68536592a32.92682959 32.92682959 0 0 0 60.25609776 1.07560986l74.08536591-135.79024395 37.16341435 51.71707354a25.33170761 25.33170761 0 0 0 20.56829326 10.53658477h57.51219463a25.33170761 25.33170761 0 1 0 0-50.66341436z"  horiz-adv-x="1024" />

    
    <glyph glyph-name="shebeixinxi" unicode="&#59099;" d="M300.4016 426.072c0.2256-0.2256 0.4176-0.4752 0.6528-0.7056l96.6816-95.256 33.7152 33.2352-36.3984 35.8512-16.4592 16.2336 84.36 83.1168 11.1264-1.2144c2.8368-0.3216 5.736-0.4752 8.6256-0.4752 5.8224 0 11.5248 0.7056 17.0784 1.92L437.6768 559.9824c-1.2528 1.248-2.6064 2.3328-3.912 3.4992 19.1424 67.8 1.7136 143.5248-52.4016 196.8288-53.7024 52.9296-129.8208 70.2288-198.2496 52.032L299.048 698.112l-30.432-111.8976-113.5776-29.9952L39.0992 670.4496C20.624 603.024 38.2016 528.0047999999999 91.9088 475.0992c56.4-55.5888 137.5296-71.8848 208.4928-49.0272z m342.5616-68.3712a75.5184 75.5184 0 0 1-1.4256-25.3728l1.2336-10.9584-7.9152-7.7904-59.9664-59.1072-16.4688-16.2144-52.8624 52.08-33.7296-33.2304 306.0288-301.5552c18.8784-18.5616 43.584-27.8544 68.3136-27.8544 24.7152 0 49.44 9.2928 68.304 27.8544a94.224 94.224 0 0 1 0 134.6352l-271.512 267.5136z m236.2944-370.9056l-48.5376-12.8016-39.384 38.8128 13.0032 47.8176 48.5424 12.8208 39.3744-38.8128-12.9984-47.8368z m-373.344 335.64l52.872-52.0992 59.976 59.0976a97.7664 97.7664 0 0 0 28.6992 80.8848c22.4304 22.0944 52.8336 31.4688 82.0896 28.2912l262.2384 258.3888-146.8896 144.7248-262.2432-258.3984a97.8288 97.8288 0 0 0-28.6992-80.8896c-22.4304-22.0944-52.8288-31.4688-82.0944-28.272L411.896 415.0656l52.848-52.0704-259.1376-255.3312-9.48 9.336-49.7424-39.4752-83.6688-130.1904 21.3552-21.0624 132.144 82.4496 40.056 49.0032-9.5136 9.3552 259.1568 255.3552z"  horiz-adv-x="1024" />

    
    <glyph glyph-name="fenxi" unicode="&#59100;" d="M816.125 68.25l-327.375 303.75V817.03125h0.9375l-0.46875 0.46875C242.9375 817.5 43.25 617.8125 43.25 371.53125S242.9375-74.4375 489.21875-74.4375c129.1875 0 245.4375 54.9375 326.90625 142.6875zM536.9375 840.5625h-0.9375v-445.03125l327.84375-304.125c73.875 79.59375 118.96875 186.1875 118.96875 303.28125C982.90625 640.875 783.21875 840.5625 536.9375 840.5625z"  horiz-adv-x="1024" />

    
    <glyph glyph-name="qian" unicode="&#59096;" d="M708.39270019 803.57363891L582.0378418 568.20117188c-33.68984985-63.77893066-54.29992676-106.17654419-61.83352662-127.19448853h-2.12750244C495.84268188 492.09970093 433.11349487 612.96441651 329.89007568 803.57281494H211.04162598l221.00646972-383.76617431H250.83630371v-84.79522706h212.38192749v-116.87503052H250.83547974V132.25103760000002h212.38192749V-37.875h105.37811279V132.25103760000002h204.87716675V218.13720703H568.59634399V335.01306152999996H773.47186279v84.79522704H597.63485718L820.77212524 803.57363891H708.39270019z"  horiz-adv-x="1024" />

    
    <glyph glyph-name="cheshen" unicode="&#59095;" d="M1071.376999 491.707071c11.007705-4.016477 21.925359-8.280594 33.039487-11.992125 24.650423-8.262174 27.636431-12.171204 28.107151-38.413891 0.070608-3.64297 0.00921-7.275707 0.00921-12.172227-15.813151 0-30.665417 0.054235-45.511543-0.016373-12.676717-0.063445-21.037129-6.565533-21.471011-16.48137-0.461511-10.304693 8.360412-18.120706 21.125133-18.282389 14.84408-0.195451 29.690206-0.042979 45.821605-0.042979 0-20.326954 0.00921-39.284725-0.00921-58.234309-0.00921-9.726525 0.2415-19.454074-0.186242-29.15604-0.299829-6.770194 1.901303-10.891048 7.231705-15.759939 5.365194-4.91187 7.819083-13.34289 10.598382-20.600177 1.25355-3.252067-0.01842-7.40976 0.25685-11.132548 2.185782-30.008454-12.037151-36.449143-34.636868-38.643112-8.848529-0.861624-17.653055-2.016937-27.522844-3.163039 3.811816 57.157791-13.218046 105.299231-56.409754 142.477992-31.591509 27.202549-68.679196 39.71042-110.406552 38.341237-31.057343-1.01205-59.272965-10.836813-84.760452-28.241204-25.91216-17.696034-44.843324-41.273009-56.987922-70.314439-11.905144-28.488845-15.528672-58.011228-10.652618-89.199555L382.490336 210.68058299999996c7.543813 62.770626-11.805884 115.157763-61.349253 154.47728-34.274618 27.210735-74.312496 37.169551-117.745704 32.354895C125.661969 388.904707 46.277968 312.406428 65.379001 203.11221c-16.631796 2.708692-32.630165 5.043876-48.497551 8.137331-3.313465 0.639566-6.547113 3.613294-9.051143 6.254447-11.753695 12.419867-9.717316 50.528813 2.381234 62.495356 3.481288 3.438309 6.057973 9.097192 6.537903 13.984503 1.669012 17.099447 2.461051 34.281781 3.127224 51.454906 0.318248 8.226359 2.52245 12.728906 12.081153 13.449313 11.82635 0.868787 23.506367 3.916193 35.21606 6.181793 11.281951 2.176572 18.291598 10.972912 16.33606 20.247136-2.069125 9.815553-11.147898 15.32401-22.280446 13.395078-12.116969-2.096754-24.215518-4.288676-36.298717-6.449899-2.913353 11.407817 0.623193 19.046798 12.429077 26.767644 33.981952 22.217001 71.069639 38.136575 109.874433 48.850591 43.715641 12.0832 88.347141 20.825304 132.50792 31.28861 4.789073 1.136893 9.836019 3.270487 13.57518 6.370081 49.803289 41.531905 103.59338 76.807317 161.824619 105.440447 50.958602 25.043373 105.647155 33.083489 161.338548 36.646642 59.875692 3.827165 119.440299 0.186242 178.722474-8.831132 27.716248-4.221138 53.257971-14.650675 76.834946-29.139667 36.528961-22.449291 72.943312-45.225017 108.034529-69.825298 19.331277-13.547551 38.234813-19.303648 61.147662-13.113669 10.375302 2.808976 21.327748 3.493567 32.007995 5.16258 13.82282 2.167363 23.203468-2.931772 25.292036-13.779841 2.2656-11.753695-4.557806-20.22667-18.539238-23.033599-2.744507-0.543376-5.499248-0.995677-8.236592-1.475608C1071.617476 492.951411 1071.492632 492.328217 1071.376999 491.707071L1071.376999 491.707071zM693.20703 591.274764c-133.024689 14.959713-245.481947-29.378098-346.419847-115.460662 112.975051-25.603121 224.882793-12.109806 337.554946-6.228865C687.352695 510.878712 690.275258 551.005618 693.20703 591.274764L693.20703 591.274764zM730.545426 588.024743c-2.815115-38.255279-5.624091-76.347852-8.457626-114.875331 52.013631 4.386914 102.624309 8.66024 154.907069 13.07683C839.90309 539.517983 794.871477 576.813401 730.545426 588.024743L730.545426 588.024743zM666.884525 394.446933l0-0.106424c7.079232 0 14.159488 0 21.249977 0.00921 0.74599 0 1.482771 0.045025 2.228761 0.170892 10.172687 1.598404 17.784038 10.072403 16.995069 18.894326-0.782829 8.892531-8.377808 15.503089-18.710131 15.671934-14.159488 0.23843-28.348652 0.381693-42.49893 0.01842-10.875698-0.275269-18.2302-7.506974-18.48705-17.093307-0.25685-9.426697 7.116071-16.861016 17.962094-17.491373C652.698431 394.092869 659.796083 394.446933 666.884525 394.446933L666.884525 394.446933zM666.884525 394.446933M927.675133 121.78085699999997c-66.13014 0-117.211539 51.658544-117.131721 118.437459 0.061398 64.191998 51.952232 115.985618 116.224048 116.004037 64.007803 0.024559 116.750027-51.30448 118.642121-111.712291C1047.586153 174.10659599999997 989.904429 119.96858099999997 927.675133 121.78085699999997L927.675133 121.78085699999997zM972.083552 238.467439M106.128077 239.76601500000004c-0.097214 62.612013 51.80897 114.891703 112.342648 116.703979 68.660776 2.060939 122.426307-53.691853 122.07122-116.056226-0.372483-66.236564-51.135634-118.599142-115.862821-118.632911C157.075423 121.74504100000001 106.217105 172.33729900000003 106.128077 239.76601500000004L106.128077 239.76601500000004z"  horiz-adv-x="1151" />

    
    <glyph glyph-name="gongyi" unicode="&#58966;" d="M900.0078125 112.08000000000004l-344.015625-196.56a89.76 89.76 0 0 0-87.984375 0L123.9921875 112.08000000000004A87.24 87.24 0 0 0 80 187.44000000000005V580.56a87.24 87.24 0 0 0 43.9921875 75.36l344.015625 196.56a89.76 89.76 0 0 0 87.984375 0l344.015625-196.56a87.24 87.24 0 0 0 43.9921875-75.36v-393.12a87.24 87.24 0 0 0-43.9921875-75.36z m-9.48 468.48a34.175625 34.175625 0 0 1-17.255625 29.52L529.2565625 806.64a34.92 34.92 0 0 1-34.5121875 0l-344.01562501-196.56a34.175625 34.175625 0 0 1-17.25656249-29.52v-393.12a34.175625 34.175625 0 0 1 17.255625-29.52l344.015625-196.56a35.3278125 35.3278125 0 0 1 34.5121875 0l344.01562499 196.56a34.175625 34.175625 0 0 1 17.25656251 29.52V580.56z m-164.1121875-282a35.76 35.76 0 0 0-34.8234375 8.88L591.704375 406.32a14.784375 14.784375 0 0 1-20.88 0L475.975625 312.48a14.4 14.4 0 0 1 0-20.64l90.81562499-89.76a34.96875001 34.96875001 0 0 0 8.64093751-36.24 35.5921875 35.5921875 0 0 0-29.04-24 271.584375 271.584375 0 0 0-34.224375-2.16 244.944375 244.944375 0 0 0-76.8 12 243.4078125 243.4078125 0 0 0-97.8234375 405.84 247.68 247.68 0 0 0 174.36 71.04h0.72a247.68 247.68 0 0 0 174.695625-72A242.9521875 242.9521875 0 0 0 751.5678125 324a35.3521875 35.3521875 0 0 0-25.1521875-25.44z m-25.08 135.12a192.815625 192.815625 0 0 1-50.4 86.88 195.5278125 195.5278125 0 0 1-138.4078125 57.12H512a195.504375 195.504375 0 0 1-138.12-56.16 193.944375 193.944375 0 0 1 132-330.96l-66.1921875 65.52a64.8 64.8 0 0 0 0 92.4l94.8478125 93.84a66.815625 66.815625 0 0 0 93.6 0l78.7921875-78a192.984375 192.984375 0 0 1-5.5921875 69.36zM572.024375 313.91999999999996a42.96 42.96 0 0 0 60.43125 0 41.904375 41.904375 0 0 0 0-59.76 42.96 42.96 0 0 0-60.43125 0 41.9278125 41.9278125 0 0 0-0.024375 59.76z"  horiz-adv-x="1024" />

    
    </font>
</defs>
</svg>
